<?xml version="1.0" encoding="utf-8"?>
<svg xmlns="http://www.w3.org/2000/svg" xmlns:xlink="http://www.w3.org/1999/xlink" width="600" height="400" viewBox="0 0 2400 1600">
<defs>
  <clipPath id="clip4700">
    <rect x="0" y="0" width="2400" height="1600"/>
  </clipPath>
</defs>
<polygon clip-path="url(#clip4700)" points="
0,1600 2400,1600 2400,0 0,0 
  " fill="#ffffff" fill-rule="evenodd" fill-opacity="1"/>
<defs>
  <clipPath id="clip4701">
    <rect x="480" y="0" width="1681" height="1600"/>
  </clipPath>
</defs>
<polygon clip-path="url(#clip4700)" points="
75.2921,1528.81 2112.76,1528.81 2112.76,47.2441 75.2921,47.2441 
  " fill="#ffffff" fill-rule="evenodd" fill-opacity="1"/>
<defs>
  <clipPath id="clip4702">
    <rect x="75" y="47" width="2038" height="1483"/>
  </clipPath>
</defs>
<polyline clip-path="url(#clip4702)" style="stroke:#000000; stroke-width:2; stroke-opacity:0.1; fill:none" points="
  75.2921,1528.81 75.2921,47.2441 
  "/>
<polyline clip-path="url(#clip4702)" style="stroke:#000000; stroke-width:2; stroke-opacity:0.1; fill:none" points="
  584.658,1528.81 584.658,47.2441 
  "/>
<polyline clip-path="url(#clip4702)" style="stroke:#000000; stroke-width:2; stroke-opacity:0.1; fill:none" points="
  1094.02,1528.81 1094.02,47.2441 
  "/>
<polyline clip-path="url(#clip4702)" style="stroke:#000000; stroke-width:2; stroke-opacity:0.1; fill:none" points="
  1603.39,1528.81 1603.39,47.2441 
  "/>
<polyline clip-path="url(#clip4702)" style="stroke:#000000; stroke-width:2; stroke-opacity:0.1; fill:none" points="
  2112.76,1528.81 2112.76,47.2441 
  "/>
<polyline clip-path="url(#clip4702)" style="stroke:#000000; stroke-width:2; stroke-opacity:0.1; fill:none" points="
  75.2921,1528.81 2112.76,1528.81 
  "/>
<polyline clip-path="url(#clip4702)" style="stroke:#000000; stroke-width:2; stroke-opacity:0.1; fill:none" points="
  75.2921,1158.42 2112.76,1158.42 
  "/>
<polyline clip-path="url(#clip4702)" style="stroke:#000000; stroke-width:2; stroke-opacity:0.1; fill:none" points="
  75.2921,788.026 2112.76,788.026 
  "/>
<polyline clip-path="url(#clip4702)" style="stroke:#000000; stroke-width:2; stroke-opacity:0.1; fill:none" points="
  75.2921,417.635 2112.76,417.635 
  "/>
<polyline clip-path="url(#clip4702)" style="stroke:#000000; stroke-width:2; stroke-opacity:0.1; fill:none" points="
  75.2921,47.2441 2112.76,47.2441 
  "/>
<polyline clip-path="url(#clip4700)" style="stroke:#000000; stroke-width:4; stroke-opacity:1; fill:none" points="
  75.2921,1528.81 2112.76,1528.81 
  "/>
<polyline clip-path="url(#clip4700)" style="stroke:#000000; stroke-width:4; stroke-opacity:1; fill:none" points="
  75.2921,1528.81 75.2921,47.2441 
  "/>
<polyline clip-path="url(#clip4700)" style="stroke:#000000; stroke-width:4; stroke-opacity:1; fill:none" points="
  75.2921,1528.81 75.2921,1506.58 
  "/>
<polyline clip-path="url(#clip4700)" style="stroke:#000000; stroke-width:4; stroke-opacity:1; fill:none" points="
  584.658,1528.81 584.658,1506.58 
  "/>
<polyline clip-path="url(#clip4700)" style="stroke:#000000; stroke-width:4; stroke-opacity:1; fill:none" points="
  1094.02,1528.81 1094.02,1506.58 
  "/>
<polyline clip-path="url(#clip4700)" style="stroke:#000000; stroke-width:4; stroke-opacity:1; fill:none" points="
  1603.39,1528.81 1603.39,1506.58 
  "/>
<polyline clip-path="url(#clip4700)" style="stroke:#000000; stroke-width:4; stroke-opacity:1; fill:none" points="
  2112.76,1528.81 2112.76,1506.58 
  "/>
<polyline clip-path="url(#clip4700)" style="stroke:#000000; stroke-width:4; stroke-opacity:1; fill:none" points="
  75.2921,1528.81 105.854,1528.81 
  "/>
<polyline clip-path="url(#clip4700)" style="stroke:#000000; stroke-width:4; stroke-opacity:1; fill:none" points="
  75.2921,1158.42 105.854,1158.42 
  "/>
<polyline clip-path="url(#clip4700)" style="stroke:#000000; stroke-width:4; stroke-opacity:1; fill:none" points="
  75.2921,788.026 105.854,788.026 
  "/>
<polyline clip-path="url(#clip4700)" style="stroke:#000000; stroke-width:4; stroke-opacity:1; fill:none" points="
  75.2921,417.635 105.854,417.635 
  "/>
<polyline clip-path="url(#clip4700)" style="stroke:#000000; stroke-width:4; stroke-opacity:1; fill:none" points="
  75.2921,47.2441 105.854,47.2441 
  "/>
<g clip-path="url(#clip4700)">
<text style="fill:#000000; fill-opacity:1; font-family:Arial,Helvetica Neue,Helvetica,sans-serif; font-size:48px; text-anchor:middle;" transform="rotate(0, 75.2921, 1582.81)" x="75.2921" y="1582.81">-1.0</text>
</g>
<g clip-path="url(#clip4700)">
<text style="fill:#000000; fill-opacity:1; font-family:Arial,Helvetica Neue,Helvetica,sans-serif; font-size:48px; text-anchor:middle;" transform="rotate(0, 584.658, 1582.81)" x="584.658" y="1582.81">-0.5</text>
</g>
<g clip-path="url(#clip4700)">
<text style="fill:#000000; fill-opacity:1; font-family:Arial,Helvetica Neue,Helvetica,sans-serif; font-size:48px; text-anchor:middle;" transform="rotate(0, 1094.02, 1582.81)" x="1094.02" y="1582.81">0.0</text>
</g>
<g clip-path="url(#clip4700)">
<text style="fill:#000000; fill-opacity:1; font-family:Arial,Helvetica Neue,Helvetica,sans-serif; font-size:48px; text-anchor:middle;" transform="rotate(0, 1603.39, 1582.81)" x="1603.39" y="1582.81">0.5</text>
</g>
<g clip-path="url(#clip4700)">
<text style="fill:#000000; fill-opacity:1; font-family:Arial,Helvetica Neue,Helvetica,sans-serif; font-size:48px; text-anchor:middle;" transform="rotate(0, 2112.76, 1582.81)" x="2112.76" y="1582.81">1.0</text>
</g>
<g clip-path="url(#clip4700)">
<text style="fill:#000000; fill-opacity:1; font-family:Arial,Helvetica Neue,Helvetica,sans-serif; font-size:48px; text-anchor:end;" transform="rotate(0, 51.2921, 1546.31)" x="51.2921" y="1546.31">-1.0</text>
</g>
<g clip-path="url(#clip4700)">
<text style="fill:#000000; fill-opacity:1; font-family:Arial,Helvetica Neue,Helvetica,sans-serif; font-size:48px; text-anchor:end;" transform="rotate(0, 51.2921, 1175.92)" x="51.2921" y="1175.92">-0.5</text>
</g>
<g clip-path="url(#clip4700)">
<text style="fill:#000000; fill-opacity:1; font-family:Arial,Helvetica Neue,Helvetica,sans-serif; font-size:48px; text-anchor:end;" transform="rotate(0, 51.2921, 805.526)" x="51.2921" y="805.526">0.0</text>
</g>
<g clip-path="url(#clip4700)">
<text style="fill:#000000; fill-opacity:1; font-family:Arial,Helvetica Neue,Helvetica,sans-serif; font-size:48px; text-anchor:end;" transform="rotate(0, 51.2921, 435.135)" x="51.2921" y="435.135">0.5</text>
</g>
<g clip-path="url(#clip4700)">
<text style="fill:#000000; fill-opacity:1; font-family:Arial,Helvetica Neue,Helvetica,sans-serif; font-size:48px; text-anchor:end;" transform="rotate(0, 51.2921, 64.7441)" x="51.2921" y="64.7441">1.0</text>
</g>
<polyline clip-path="url(#clip4702)" style="stroke:#88216a; stroke-width:4; stroke-opacity:1; fill:none" points="
  75.2921,1512.81 83.2838,1498.57 100.411,1468.34 116.873,1439.1 117.433,1438.1 134.749,1407.86 151.92,1377.63 158.454,1366.25 169.224,1347.39 186.53,1317.16 
  200.035,1293.49 203.765,1286.92 221.173,1256.68 238.377,1226.45 241.616,1220.83 255.754,1196.21 272.979,1165.98 283.197,1148.02 290.155,1135.74 307.343,1105.5 
  324.241,1075.27 324.777,1074.32 341.299,1045.03 358.023,1014.8 366.358,999.646 374.629,984.56 391.075,954.324 407.098,924.088 407.939,922.511 423.159,893.852 
  438.806,863.616 449.52,842.65 454.236,833.38 469.753,803.144 485.146,772.908 491.101,761.532 500.953,742.672 517.116,712.436 532.682,683.49 533.385,682.2 
  550.112,651.964 566.29,621.728 574.263,605.782 581.827,591.492 596.161,561.256 608.308,531.02 615.844,506.385 617.714,500.784 624.047,470.548 626.66,440.312 
  625.67,410.076 621.444,379.84 615.844,355.45 614.565,349.604 605.969,319.368 595.749,289.132 584.273,258.896 574.263,234.516 571.961,228.66 559.501,198.424 
  546.513,168.188 533.107,137.952 532.682,137.004 519.991,107.716 506.658,77.4801 493.126,47.2441 
  "/>
<polyline clip-path="url(#clip4702)" style="stroke:#6e186e; stroke-width:4; stroke-opacity:1; fill:none" points="
  565.448,47.2441 574.263,67.6155 578.725,77.4801 592.402,107.716 605.86,137.952 615.844,160.786 619.272,168.188 633.003,198.424 646.155,228.66 657.425,256.164 
  658.628,258.896 670.957,289.132 681.74,319.368 690.497,349.604 696.659,379.84 699.006,403.723 699.679,410.076 699.006,432.841 698.81,440.312 693.87,470.548 
  684.772,500.784 671.937,531.02 657.425,558.785 656.255,561.256 639.687,591.492 622.149,621.728 615.844,632.44 604.946,651.964 588.297,682.2 574.263,708.548 
  572.234,712.436 557.416,742.672 543.042,772.908 532.682,795.233 529.024,803.144 515.391,833.38 501.466,863.616 491.101,885.679 487.272,893.852 473.044,924.088 
  458.342,954.324 449.52,972.178 443.42,984.56 428.436,1014.8 413.07,1045.03 407.939,1055.13 397.742,1075.27 382.305,1105.5 366.578,1135.74 366.358,1136.17 
  351.158,1165.98 335.518,1196.21 324.777,1216.91 319.834,1226.45 304.34,1256.68 288.669,1286.92 283.197,1297.6 273.181,1317.16 257.739,1347.39 242.16,1377.63 
  241.616,1378.71 226.957,1407.86 211.667,1438.1 200.035,1461.13 196.394,1468.34 181.407,1498.57 166.345,1528.81 
  "/>
<polyline clip-path="url(#clip4702)" style="stroke:#550f6d; stroke-width:4; stroke-opacity:1; fill:none" points="
  274.62,1528.81 283.197,1508.36 287.331,1498.57 300.358,1468.34 313.345,1438.1 324.777,1411.5 326.351,1407.86 339.781,1377.63 353.135,1347.39 366.358,1317.27 
  366.41,1317.16 380.171,1286.92 393.81,1256.68 407.32,1226.45 407.939,1225.1 421.273,1196.21 435.073,1165.98 448.681,1135.74 449.52,1133.91 462.679,1105.5 
  476.452,1075.27 489.945,1045.03 491.101,1042.47 503.726,1014.8 517.183,984.56 530.231,954.324 532.682,948.631 543.373,924.088 556.138,893.852 568.408,863.616 
  574.263,848.982 580.591,833.38 592.798,803.144 604.971,772.908 615.844,746.817 617.605,742.672 631.74,712.436 647.012,682.2 657.425,663.292 663.98,651.964 
  682.834,621.728 699.006,596.599 702.613,591.492 723.577,561.256 740.586,534.839 743.411,531.02 762.102,500.784 776.487,470.548 782.167,451.655 786.244,440.312 
  790.69,410.076 789.29,379.84 782.781,349.604 782.167,347.832 773.524,319.368 761.589,289.132 747.583,258.896 740.586,245.145 733.095,228.66 718.516,198.424 
  703.28,168.188 699.006,159.849 688.758,137.952 674.407,107.716 659.882,77.4801 657.425,72.319 646.314,47.2441 
  "/>
<polyline clip-path="url(#clip4702)" style="stroke:#3b0963; stroke-width:4; stroke-opacity:1; fill:none" points="
  744.011,47.2441 760.203,77.4801 776.418,107.716 782.167,118.355 794.311,137.952 812.941,168.188 823.748,186.049 832.647,198.424 853.67,228.66 865.329,246.587 
  875.295,258.896 897.159,289.132 906.91,305.595 917.69,319.368 933.892,349.604 940.167,379.84 934.794,410.076 917.057,440.312 906.91,450.295 892.016,470.548 
  865.329,496.71 862.112,500.784 832.128,531.02 823.748,538.526 802.872,561.256 782.167,583.017 775.23,591.492 750.986,621.728 740.586,635.932 729.899,651.964 
  712.108,682.2 699.006,707.916 696.818,712.436 684.387,742.672 673.16,772.908 662.504,803.144 657.425,817.96 652.298,833.38 642.191,863.616 631.644,893.852 
  620.588,924.088 615.844,936.802 609.475,954.324 598.248,984.56 586.632,1014.8 574.665,1045.03 574.263,1046.06 563.141,1075.27 551.41,1105.5 539.472,1135.74 
  532.682,1152.98 527.668,1165.98 516.138,1196.21 504.495,1226.45 492.756,1256.68 491.101,1261.06 481.518,1286.92 470.326,1317.16 459.099,1347.39 449.52,1373.27 
  447.935,1377.63 437.279,1407.86 426.63,1438.1 415.994,1468.34 407.939,1491.47 405.508,1498.57 395.463,1528.81 
  "/>
<polyline clip-path="url(#clip4702)" style="stroke:#1f0b46; stroke-width:4; stroke-opacity:1; fill:none" points="
  537.877,1528.81 545.052,1498.57 552.343,1468.34 559.744,1438.1 567.25,1407.86 574.263,1380.06 574.9,1377.63 583.199,1347.39 591.571,1317.16 600.003,1286.92 
  608.482,1256.68 615.844,1230.68 617.091,1226.45 626.332,1196.21 635.549,1165.98 644.719,1135.74 653.816,1105.5 657.425,1093.69 663.295,1075.27 672.928,1045.03 
  682.342,1014.8 691.49,984.56 699.006,959.006 700.451,954.324 709.729,924.088 718.537,893.852 726.874,863.616 734.807,833.38 740.586,811.033 742.75,803.144 
  751.542,772.908 761.251,742.672 772.8,712.436 782.167,692.946 787.801,682.2 807.999,651.964 823.748,632.552 833.84,621.728 865.329,592.749 866.983,591.492 
  906.91,563.63 911.313,561.256 948.491,541.225 975.439,531.02 990.072,524.947 1031.65,514.098 1073.23,509.001 1114.81,508.763 1156.4,512.751 1197.98,520.536 
  1236.45,531.02 1239.56,531.8 1281.14,545.69 1318.5,561.256 1322.72,563.143 1364.3,585.624 1373.56,591.492 1405.88,616.692 1411.56,621.728 1436.93,651.964 
  1447.46,669.758 1454.27,682.2 1466.1,712.436 1475.16,742.672 1482.73,772.908 1489.04,800.729 1489.57,803.144 1495.71,833.38 1501.74,863.616 1507.7,893.852 
  1513.57,924.088 1519.29,954.324 1524.83,984.56 1530.13,1014.8 1530.62,1017.87 1534.87,1045.03 1539.28,1075.27 1543.37,1105.5 1547.12,1135.74 1550.52,1165.98 
  1553.55,1196.21 1556.21,1226.45 1558.51,1256.68 1560.44,1286.92 1562.03,1317.16 1563.28,1347.39 1564.21,1377.63 1564.85,1407.86 1565.21,1438.1 1565.32,1468.34 
  1565.21,1498.57 1564.9,1528.81 
  "/>
<polyline clip-path="url(#clip4702)" style="stroke:#3b0963; stroke-width:4; stroke-opacity:1; fill:none" points="
  1754.36,1528.81 1750.33,1498.57 1746.09,1468.34 1741.63,1438.1 1738.53,1418.32 1736.88,1407.86 1731.79,1377.63 1726.45,1347.39 1720.85,1317.16 1715,1286.92 
  1708.91,1256.68 1702.57,1226.45 1696.95,1200.68 1695.97,1196.21 1688.91,1165.98 1681.64,1135.74 1674.17,1105.5 1666.51,1075.27 1658.69,1045.03 1655.37,1032.65 
  1650.54,1014.8 1642.14,984.56 1633.67,954.324 1625.15,924.088 1616.63,893.852 1613.79,883.945 1607.89,863.616 1599.1,833.38 1590.34,803.144 1581.51,772.908 
  1572.34,742.672 1572.2,742.271 1561.83,712.436 1549.49,682.2 1534.04,651.964 1530.62,646.849 1512.84,621.728 1489.04,595.836 1484.68,591.492 1447.46,561.283 
  1447.42,561.256 1405.88,534.021 1400.66,531.02 1364.3,509.504 1347.41,500.784 1322.72,485.83 1293.68,470.548 1281.14,461.663 1245.98,440.312 1239.56,434.09 
  1209.69,410.076 1197.98,389.531 1190.89,379.84 1188.86,349.604 1197.98,327.843 1200.62,319.368 1218.2,289.132 1239.56,261.553 1241.23,258.896 1263.84,228.66 
  1281.14,207.865 1287.87,198.424 1310.96,168.188 1322.72,153.475 1333.73,137.952 1355.84,107.716 1364.3,96.3468 1377.07,77.4801 1397.85,47.2441 
  "/>
<polyline clip-path="url(#clip4702)" style="stroke:#550f6d; stroke-width:4; stroke-opacity:1; fill:none" points="
  1510.54,47.2441 1492.32,77.4801 1489.04,83.0001 1473.59,107.716 1455.31,137.952 1447.46,151.454 1437.08,168.188 1419.37,198.424 1405.88,223.573 1402.91,228.66 
  1387.35,258.896 1374.68,289.132 1365.9,319.368 1364.3,332.996 1362.1,349.604 1364.3,367.688 1365.64,379.84 1377.78,410.076 1400.58,440.312 1405.88,445.031 
  1432.06,470.548 1447.46,482.226 1469.82,500.784 1489.04,514.957 1508.93,531.02 1530.62,548.615 1544.92,561.256 1572.2,588.15 1575.36,591.492 1599.42,621.728 
  1613.79,644.044 1618.71,651.964 1634.13,682.2 1647.38,712.436 1655.37,732.702 1659.29,742.672 1670.42,772.908 1681.38,803.144 1692.37,833.38 1696.95,846.06 
  1703.31,863.616 1714.25,893.852 1725.28,924.088 1736.39,954.324 1738.53,960.267 1747.33,984.56 1758.23,1014.8 1769.11,1045.03 1779.97,1075.27 1780.11,1075.66 
  1790.53,1105.5 1801.01,1135.74 1811.4,1165.98 1821.69,1196.2 1821.69,1196.21 1831.63,1226.45 1841.44,1256.68 1851.11,1286.92 1860.63,1317.16 1863.27,1325.86 
  1869.84,1347.39 1878.83,1377.63 1887.64,1407.86 1896.28,1438.1 1904.75,1468.34 1904.85,1468.73 1912.85,1498.57 1920.78,1528.81 
  "/>
<polyline clip-path="url(#clip4702)" style="stroke:#6e186e; stroke-width:4; stroke-opacity:1; fill:none" points="
  2074.47,1528.81 2071.18,1520.31 2062.87,1498.57 2051.1,1468.34 2039.21,1438.1 2029.59,1414.01 2027.17,1407.86 2014.91,1377.63 2002.54,1347.39 1990.09,1317.16 
  1988.01,1312.27 1977.41,1286.92 1964.64,1256.68 1951.82,1226.45 1946.43,1214.02 1938.84,1196.21 1925.76,1165.98 1912.66,1135.74 1904.85,1117.95 1899.47,1105.5 
  1886.21,1075.27 1872.95,1045.03 1863.27,1023.08 1859.67,1014.8 1846.34,984.56 1833.07,954.324 1821.69,928.361 1819.85,924.088 1806.6,893.852 1793.47,863.616 
  1780.47,833.38 1780.11,832.567 1767.42,803.144 1754.44,772.908 1741.36,742.672 1738.53,736.452 1727.75,712.436 1713.26,682.2 1697.26,651.964 1696.95,651.444 
  1678.53,621.728 1656.58,591.492 1655.37,590.038 1630.14,561.256 1613.79,544.413 1599.9,531.02 1572.2,504.811 1567.63,500.784 1536.42,470.548 1530.62,463.636 
  1509.86,440.312 1490.94,410.076 1489.04,404.851 1479.47,379.84 1475.43,349.604 1477.52,319.368 1484.41,289.132 1489.04,275.867 1494.61,258.896 1507.17,228.66 
  1521.73,198.424 1530.62,181.68 1537.47,168.188 1553.9,137.952 1571.23,107.716 1572.2,106.062 1588.54,77.4801 1606.37,47.2441 
  "/>
<polyline clip-path="url(#clip4702)" style="stroke:#88216a; stroke-width:4; stroke-opacity:1; fill:none" points="
  1693.76,47.2441 1676.11,77.4801 1659.08,107.716 1655.37,114.571 1642.45,137.952 1626.67,168.188 1613.79,194.885 1612.03,198.424 1598.55,228.66 1587.09,258.896 
  1578.24,289.132 1572.77,319.368 1572.2,334.072 1571.58,349.604 1572.2,353.939 1575.8,379.84 1586.33,410.076 1603.72,440.312 1613.79,453.036 1627.02,470.548 
  1654.29,500.784 1655.37,501.887 1682.24,531.02 1696.95,547.375 1708.84,561.256 1732.71,591.492 1738.53,599.748 1753.75,621.728 1772.55,651.964 1780.11,665.385 
  1789.69,682.2 1805.74,712.436 1821.19,742.672 1821.69,743.699 1836.32,772.908 1851.35,803.144 1863.27,827.193 1866.41,833.38 1881.54,863.616 1896.74,893.852 
  1904.85,910.058 1912.04,924.088 1927.41,954.324 1942.84,984.56 1946.43,991.684 1958.34,1014.8 1973.89,1045.03 1988.01,1072.48 1989.48,1075.27 2005.09,1105.5 
  2020.73,1135.74 2029.59,1153.03 2036.38,1165.98 2052.02,1196.21 2067.66,1226.45 2071.18,1233.36 2083.27,1256.68 2098.84,1286.92 2112.76,1314.03 
  "/>
<polyline clip-path="url(#clip4702)" style="stroke:#a12b61; stroke-width:4; stroke-opacity:1; fill:none" points="
  2112.76,1109.6 2110.37,1105.5 2092.54,1075.27 2074.71,1045.03 2071.18,1039.12 2057.02,1014.8 2039.39,984.56 2029.59,967.902 2021.83,954.324 2004.4,924.088 
  1988.01,895.722 1986.96,893.852 1969.71,863.616 1952.44,833.38 1946.43,823.034 1935.25,803.144 1918.04,772.908 1904.85,750.077 1900.71,742.672 1883.21,712.436 
  1865.25,682.2 1863.27,679.055 1846.66,651.964 1827.14,621.728 1821.69,613.796 1806.35,591.492 1784.03,561.256 1780.11,556.177 1760,531.02 1738.53,504.753 
  1735.14,500.784 1710.95,470.548 1696.95,450.144 1689.95,440.312 1673.87,410.076 1663.73,379.84 1659.32,349.604 1659.95,319.368 1664.73,289.132 1672.83,258.896 
  1683.55,228.66 1696.32,198.424 1696.95,197.1 1710.48,168.188 1725.87,137.952 1738.53,114.591 1742.22,107.716 1759.2,77.4801 1776.83,47.2441 
  "/>
<polyline clip-path="url(#clip4702)" style="stroke:#ba3655; stroke-width:4; stroke-opacity:1; fill:none" points="
  1858.11,47.2441 1840.37,77.4801 1823.31,107.716 1821.69,110.74 1807.07,137.952 1791.87,168.188 1780.11,193.779 1777.96,198.424 1765.67,228.66 1755.45,258.896 
  1747.86,289.132 1743.57,319.368 1743.3,349.604 1747.78,379.84 1757.49,410.076 1772.38,440.312 1780.11,452.363 1791.45,470.548 1813.06,500.784 1821.69,512.187 
  1835.47,531.02 1857.57,561.256 1863.27,569.21 1879.11,591.492 1900.18,621.728 1904.85,628.643 1920.98,651.964 1941.42,682.2 1946.43,689.904 1961.65,712.436 
  1981.53,742.672 1988.01,752.863 2001.29,772.908 2020.86,803.144 2029.59,816.933 2040.41,833.38 2059.92,863.616 2071.18,881.317 2079.43,893.852 2099.02,924.088 
  2112.76,945.517 
  "/>
<polyline clip-path="url(#clip4702)" style="stroke:#d04544; stroke-width:4; stroke-opacity:1; fill:none" points="
  2112.76,807.094 2109.95,803.144 2087.73,772.908 2071.18,751.026 2065.14,742.672 2042.47,712.436 2029.59,695.779 2019.58,682.2 1996.72,651.964 1988.01,640.529 
  1974.19,621.728 1952.2,591.492 1946.43,583.332 1930.93,561.256 1910.16,531.02 1904.85,522.974 1889.86,500.784 1870.51,470.548 1863.27,457.649 1853.31,440.312 
  1839.64,410.076 1830.46,379.84 1826.04,349.604 1826.1,319.368 1830.07,289.132 1837.3,258.896 1847.17,228.66 1859.17,198.424 1863.27,189.385 1872.93,168.188 
  1888.06,137.952 1904.28,107.716 1904.85,106.708 1921.52,77.4801 1939.45,47.2441 
  "/>
<polyline clip-path="url(#clip4702)" style="stroke:#e25832; stroke-width:4; stroke-opacity:1; fill:none" points="
  2022.42,47.2441 2004.23,77.4801 1988.01,105.556 1986.78,107.716 1970.51,137.952 1955.35,168.188 1946.43,187.822 1941.67,198.424 1929.86,228.66 1920.2,258.896 
  1913.2,289.132 1909.41,319.368 1909.41,349.604 1913.59,379.84 1922.04,410.076 1934.34,440.312 1946.43,464.183 1949.59,470.548 1966.82,500.784 1985.28,531.02 
  1988.01,535.158 2005.21,561.256 2026.74,591.492 2029.59,595.259 2050.27,621.728 2071.18,647.339 2075.13,651.964 2101.02,682.2 2112.76,696.152 
  "/>
<polyline clip-path="url(#clip4702)" style="stroke:#f0711e; stroke-width:4; stroke-opacity:1; fill:none" points="
  2112.76,602.154 2103.95,591.492 2081.44,561.256 2071.18,545.376 2061.97,531.02 2045.02,500.784 2029.88,470.548 2029.59,469.882 2016.77,440.312 2006.11,410.076 
  1998.68,379.84 1995.01,349.604 1995.18,319.368 1998.94,289.132 2005.84,258.896 2015.38,228.66 2027.08,198.424 2029.59,192.814 2040.81,168.188 2056.03,137.952 
  2071.18,109.982 2072.42,107.716 2090.14,77.4801 2108.58,47.2441 
  "/>
<polyline clip-path="url(#clip4702)" style="stroke:#f88c0a; stroke-width:4; stroke-opacity:1; fill:none" points="
  2112.76,209.813 2105.47,228.66 2095.95,258.896 2089,289.132 2085.04,319.368 2084.4,349.604 2087.17,379.84 2093.12,410.076 2101.73,440.312 2112.47,470.548 
  2112.76,471.202 
  "/>
<polyline clip-path="url(#clip4702)" style="stroke:#1f0b46; stroke-width:4; stroke-opacity:1; fill:none" points="
  1235.41,47.2441 1202.19,77.4801 1197.98,81.2945 1160.38,107.716 1156.4,110.516 1114.81,130.432 1083.67,137.952 1073.23,140.462 1031.65,139.636 1025.89,137.952 
  990.072,127.153 956.989,107.716 948.491,102.527 920.693,77.4801 906.91,64.5805 892.783,47.2441 
  "/>
<polyline clip-path="url(#clip4702)" style="stroke:#a12b61; stroke-width:4; stroke-opacity:1; fill:none" points="
  425.931,47.2441 439.469,77.4801 449.52,100.215 452.894,107.716 466.344,137.952 479.46,168.188 491.101,195.84 492.216,198.424 504.854,228.66 516.825,258.896 
  527.952,289.132 532.682,303.289 538.22,319.368 547.233,349.604 554.415,379.84 559.343,410.076 561.591,440.312 560.81,470.548 556.82,500.784 549.685,531.02 
  539.699,561.256 532.682,578.159 527.456,591.492 513.504,621.728 497.976,651.964 491.101,664.462 481.535,682.2 464.559,712.436 449.52,738.725 447.256,742.672 
  430.249,772.908 413.152,803.144 407.939,812.526 396.223,833.38 379.19,863.616 366.358,886.153 361.927,893.852 344.608,924.088 326.891,954.324 324.777,957.951 
  309.146,984.56 291.085,1014.8 283.197,1027.97 272.894,1045.03 254.558,1075.27 241.616,1096.44 236.028,1105.5 217.495,1135.74 200.035,1163.87 198.714,1165.98 
  180.049,1196.21 161.142,1226.45 158.454,1230.8 142.342,1256.68 123.386,1286.92 116.873,1297.39 104.476,1317.16 85.5121,1347.39 75.2921,1363.74 
  "/>
<polyline clip-path="url(#clip4702)" style="stroke:#ba3655; stroke-width:4; stroke-opacity:1; fill:none" points="
  75.2921,1243.74 86.8733,1226.45 107.128,1196.21 116.873,1181.7 127.315,1165.98 147.397,1135.74 158.454,1119.09 167.367,1105.5 187.229,1075.27 200.035,1055.69 
  206.924,1045.03 226.514,1014.8 241.616,991.267 245.867,984.56 265.135,954.324 283.197,925.524 284.085,924.088 303.016,893.852 321.629,863.616 324.777,858.578 
  340.267,833.38 358.741,803.144 366.358,790.832 377.272,772.908 395.73,742.672 407.939,722.4 413.9,712.436 431.511,682.2 447.811,651.964 449.52,648.397 
  462.655,621.728 475.419,591.492 485.857,561.256 491.101,540.98 493.818,531.02 499.078,500.784 501.374,470.548 500.739,440.312 497.383,410.076 491.641,379.84 
  491.101,377.708 484.101,349.604 475.001,319.368 464.642,289.132 453.281,258.896 449.52,249.49 441.32,228.66 428.837,198.424 415.853,168.188 407.939,150.266 
  402.559,137.952 389.089,107.716 375.337,77.4801 366.358,58.0164 361.418,47.2441 
  "/>
<polyline clip-path="url(#clip4702)" style="stroke:#d04544; stroke-width:4; stroke-opacity:1; fill:none" points="
  298.688,47.2441 312.921,77.4801 324.777,103.082 326.926,107.716 340.742,137.952 354.211,168.188 366.358,196.269 367.295,198.424 380.025,228.66 392.16,258.896 
  403.571,289.132 407.939,301.64 414.17,319.368 423.682,349.604 431.769,379.84 438.111,410.076 442.37,440.312 444.23,470.548 443.46,500.784 439.95,531.02 
  433.699,561.256 424.754,591.492 413.145,621.728 407.939,632.745 399.073,651.964 382.784,682.2 366.358,709.602 364.658,712.436 345.556,742.672 325.728,772.908 
  324.777,774.379 305.831,803.144 285.732,833.38 283.197,837.273 265.696,863.616 245.488,893.852 241.616,899.721 225.242,924.088 204.787,954.324 200.035,961.404 
  184.235,984.56 163.474,1014.8 158.454,1022.16 142.611,1045.03 121.552,1075.27 116.873,1082.04 100.409,1105.5 79.0805,1135.74 75.2921,1141.16 
  "/>
<polyline clip-path="url(#clip4702)" style="stroke:#e25832; stroke-width:4; stroke-opacity:1; fill:none" points="
  75.2921,1050.5 79.2689,1045.03 101.478,1014.8 116.873,993.814 123.535,984.56 145.482,954.324 158.454,936.504 167.306,924.088 189.038,893.852 200.035,878.683 
  210.707,863.616 232.322,833.38 241.616,820.546 253.91,803.144 275.323,772.908 283.197,761.732 296.359,742.672 316.444,712.436 324.777,698.848 334.958,682.2 
  351.162,651.964 364.527,621.728 366.358,616.293 374.965,591.492 382.452,561.256 387.122,531.02 389.09,500.784 388.473,470.548 385.443,440.312 380.246,410.076 
  373.178,379.84 366.358,355.903 364.556,349.604 354.71,319.368 343.838,289.132 332.134,258.896 324.777,240.901 319.764,228.66 306.87,198.424 293.512,168.188 
  283.197,145.489 279.759,137.952 265.692,107.716 251.331,77.4801 241.616,57.356 236.708,47.2441 
  "/>
<polyline clip-path="url(#clip4702)" style="stroke:#f0711e; stroke-width:4; stroke-opacity:1; fill:none" points="
  174.88,47.2441 189.874,77.4801 200.035,98.2936 204.595,107.716 218.97,137.952 233.014,168.188 241.616,187.189 246.662,198.424 259.828,228.66 272.472,258.896 
  283.197,285.851 284.492,289.132 295.725,319.368 306.029,349.604 315.196,379.84 322.978,410.076 324.777,418.863 329.098,440.312 333.272,470.548 335.244,500.784 
  334.788,531.02 331.681,561.256 325.653,591.492 324.777,594.288 316.413,621.728 303.748,651.964 287.708,682.2 283.197,689.448 268.826,712.436 247.831,742.672 
  241.616,751.252 225.582,772.908 202.668,803.144 200.035,806.674 179.56,833.38 158.454,860.943 156.349,863.616 133.17,893.852 116.873,915.232 109.948,924.088 
  86.7006,954.324 75.2921,969.285 
  "/>
<polyline clip-path="url(#clip4702)" style="stroke:#f88c0a; stroke-width:4; stroke-opacity:1; fill:none" points="
  75.2921,896.696 77.5622,893.852 102.343,863.616 116.873,846.129 127.149,833.38 151.864,803.144 158.454,795.139 176.238,772.908 199.711,742.672 200.035,742.231 
  221.548,712.436 240.763,682.2 241.616,680.557 256.552,651.964 268.439,621.728 276.468,591.492 281.014,561.256 282.549,531.02 281.482,500.784 278.135,470.548 
  272.787,440.312 265.706,410.076 257.158,379.84 247.39,349.604 241.616,333.344 236.577,319.368 224.893,289.132 212.531,258.896 200.035,229.672 199.597,228.66 
  186.057,198.424 172.112,168.188 158.454,139.318 157.799,137.952 143.028,107.716 127.983,77.4801 116.873,55.5118 112.639,47.2441 
  "/>
<polyline clip-path="url(#clip4702)" style="stroke:#fbaa0f; stroke-width:4; stroke-opacity:1; fill:none" points="
  75.2921,97.3138 80.5489,107.716 95.5629,137.952 110.289,168.188 116.873,182.005 124.574,198.424 138.383,228.66 151.767,258.896 158.454,274.567 164.562,289.132 
  176.665,319.368 188.054,349.604 198.576,379.84 200.035,384.455 207.937,410.076 216.011,440.312 222.569,470.548 227.331,500.784 229.974,531.02 230.077,561.256 
  227.083,591.492 220.346,621.728 209.331,651.964 200.035,670.101 193.866,682.2 174.384,712.436 158.454,733.839 151.769,742.672 127.071,772.908 116.873,785.051 
  101.211,803.144 75.2921,832.904 
  "/>
<polyline clip-path="url(#clip4702)" style="stroke:#f8c933; stroke-width:4; stroke-opacity:1; fill:none" points="
  75.2921,775.856 77.8866,772.908 103.771,742.672 116.873,725.844 127.136,712.436 146.791,682.2 158.454,658.781 161.865,651.964 171.904,621.728 177.246,591.492 
  178.593,561.256 176.77,531.02 172.48,500.784 166.238,470.548 158.454,440.455 158.416,440.312 149.151,410.076 138.81,379.84 127.589,349.604 116.873,322.45 
  115.626,319.368 102.861,289.132 89.5989,258.896 75.9128,228.66 75.2921,227.325 
  "/>
<polyline clip-path="url(#clip4702)" style="stroke:#f2e763; stroke-width:4; stroke-opacity:1; fill:none" points="
  75.2921,373.837 77.6508,379.84 88.9256,410.076 99.3427,440.312 108.678,470.548 116.629,500.784 116.873,501.948 122.665,531.02 126.311,561.256 126.723,591.492 
  122.896,621.728 116.873,641.924 113.919,651.964 99.3471,682.2 79.6181,712.436 75.2921,717.946 
  "/>
<polyline clip-path="url(#clip4702)" style="stroke:#0a0622; stroke-width:4; stroke-opacity:1; fill:none" points="
  732.216,1528.81 733.943,1498.57 735.968,1468.34 738.287,1438.1 740.586,1411.59 740.94,1407.86 744.243,1377.63 747.849,1347.39 751.748,1317.16 755.922,1286.92 
  760.354,1256.68 765.025,1226.45 769.909,1196.21 774.981,1165.98 780.211,1135.74 782.167,1125.03 786.071,1105.5 792.297,1075.27 798.541,1045.03 804.745,1014.8 
  810.843,984.56 816.764,954.324 822.437,924.088 823.748,916.963 828.473,893.852 834.334,863.616 839.889,833.38 845.411,803.144 851.479,772.908 859.071,742.672 
  865.329,724.953 870.412,712.436 888.345,682.2 906.91,659.8 914.801,651.964 948.491,627.095 957.988,621.728 990.072,607.197 1031.65,594.37 1048.23,591.492 
  1073.23,587.696 1114.81,586.064 1156.4,588.801 1172.6,591.492 1197.98,596.477 1239.56,609.631 1267.25,621.728 1281.14,630.084 1309.9,651.964 1322.72,666.879 
  1333.89,682.2 1347.69,712.436 1356.36,742.672 1362.16,772.908 1364.3,788.28 1366.19,803.144 1369.3,833.38 1372.03,863.616 1374.47,893.852 1376.6,924.088 
  1378.37,954.324 1379.74,984.56 1380.63,1014.8 1381.01,1045.03 1380.87,1075.27 1380.18,1105.5 1378.94,1135.74 1377.17,1165.98 1374.9,1196.21 1372.15,1226.45 
  1368.96,1256.68 1365.37,1286.92 1364.3,1295.31 1361.16,1317.16 1356.54,1347.39 1351.66,1377.63 1346.59,1407.86 1341.37,1438.1 1336.05,1468.34 1330.67,1498.57 
  1325.27,1528.81 
  "/>
<defs>
  <clipPath id="clip4703">
    <rect x="2160" y="47" width="73" height="1483"/>
  </clipPath>
</defs>
<polyline clip-path="url(#clip4703)" style="stroke:#0b0724; stroke-width:4; stroke-opacity:0.5; fill:none" points="
  2160.76,1436.21 2232.76,1436.21 
  "/>
<polyline clip-path="url(#clip4703)" style="stroke:#200b49; stroke-width:4; stroke-opacity:0.5; fill:none" points="
  2160.76,1343.61 2232.76,1343.61 
  "/>
<polyline clip-path="url(#clip4703)" style="stroke:#3c0964; stroke-width:4; stroke-opacity:0.5; fill:none" points="
  2160.76,1251.01 2232.76,1251.01 
  "/>
<polyline clip-path="url(#clip4703)" style="stroke:#57106d; stroke-width:4; stroke-opacity:0.5; fill:none" points="
  2160.76,1158.42 2232.76,1158.42 
  "/>
<polyline clip-path="url(#clip4703)" style="stroke:#70196e; stroke-width:4; stroke-opacity:0.5; fill:none" points="
  2160.76,1065.82 2232.76,1065.82 
  "/>
<polyline clip-path="url(#clip4703)" style="stroke:#8a2269; stroke-width:4; stroke-opacity:0.5; fill:none" points="
  2160.76,973.221 2232.76,973.221 
  "/>
<polyline clip-path="url(#clip4703)" style="stroke:#a32b61; stroke-width:4; stroke-opacity:0.5; fill:none" points="
  2160.76,880.624 2232.76,880.624 
  "/>
<polyline clip-path="url(#clip4703)" style="stroke:#bb3754; stroke-width:4; stroke-opacity:0.5; fill:none" points="
  2160.76,788.026 2232.76,788.026 
  "/>
<polyline clip-path="url(#clip4703)" style="stroke:#d04544; stroke-width:4; stroke-opacity:0.5; fill:none" points="
  2160.76,695.428 2232.76,695.428 
  "/>
<polyline clip-path="url(#clip4703)" style="stroke:#e25832; stroke-width:4; stroke-opacity:0.5; fill:none" points="
  2160.76,602.831 2232.76,602.831 
  "/>
<polyline clip-path="url(#clip4703)" style="stroke:#f0711e; stroke-width:4; stroke-opacity:0.5; fill:none" points="
  2160.76,510.233 2232.76,510.233 
  "/>
<polyline clip-path="url(#clip4703)" style="stroke:#f88c0a; stroke-width:4; stroke-opacity:0.5; fill:none" points="
  2160.76,417.635 2232.76,417.635 
  "/>
<polyline clip-path="url(#clip4703)" style="stroke:#fbaa0f; stroke-width:4; stroke-opacity:0.5; fill:none" points="
  2160.76,325.037 2232.76,325.037 
  "/>
<polyline clip-path="url(#clip4703)" style="stroke:#f8c933; stroke-width:4; stroke-opacity:0.5; fill:none" points="
  2160.76,232.44 2232.76,232.44 
  "/>
<polyline clip-path="url(#clip4703)" style="stroke:#f2e763; stroke-width:4; stroke-opacity:0.5; fill:none" points="
  2160.76,139.842 2232.76,139.842 
  "/>
<g clip-path="url(#clip4700)">
<text style="fill:#000000; fill-opacity:1; font-family:Arial,Helvetica Neue,Helvetica,sans-serif; font-size:48px; text-anchor:start;" transform="rotate(0, 2268.76, 1290.47)" x="2268.76" y="1290.47">50</text>
</g>
<g clip-path="url(#clip4700)">
<text style="fill:#000000; fill-opacity:1; font-family:Arial,Helvetica Neue,Helvetica,sans-serif; font-size:48px; text-anchor:start;" transform="rotate(0, 2268.76, 1037.81)" x="2268.76" y="1037.81">100</text>
</g>
<g clip-path="url(#clip4700)">
<text style="fill:#000000; fill-opacity:1; font-family:Arial,Helvetica Neue,Helvetica,sans-serif; font-size:48px; text-anchor:start;" transform="rotate(0, 2268.76, 785.149)" x="2268.76" y="785.149">150</text>
</g>
<g clip-path="url(#clip4700)">
<text style="fill:#000000; fill-opacity:1; font-family:Arial,Helvetica Neue,Helvetica,sans-serif; font-size:48px; text-anchor:start;" transform="rotate(0, 2268.76, 532.486)" x="2268.76" y="532.486">200</text>
</g>
<g clip-path="url(#clip4700)">
<text style="fill:#000000; fill-opacity:1; font-family:Arial,Helvetica Neue,Helvetica,sans-serif; font-size:48px; text-anchor:start;" transform="rotate(0, 2268.76, 279.823)" x="2268.76" y="279.823">250</text>
</g>
<polyline clip-path="url(#clip4700)" style="stroke:#000000; stroke-width:4; stroke-opacity:1; fill:none" points="
  2232.76,1528.81 2232.76,1276.82 2256.76,1276.82 2232.76,1276.82 2232.76,1024.16 2256.76,1024.16 2232.76,1024.16 2232.76,771.497 2256.76,771.497 2232.76,771.497 
  2232.76,518.834 2256.76,518.834 2232.76,518.834 2232.76,266.171 2256.76,266.171 2232.76,266.171 2232.76,47.2441 
  "/>
<g clip-path="url(#clip4700)">
<text style="fill:#000000; fill-opacity:1; font-family:Arial,Helvetica Neue,Helvetica,sans-serif; font-size:66px; text-anchor:middle;" transform="rotate(-90, 2410.36, 788.026)" x="2410.36" y="788.026"></text>
</g>
</svg>
