<?xml version="1.0" encoding="utf-8" standalone="no"?>
<!DOCTYPE svg PUBLIC "-//W3C//DTD SVG 1.1//EN"
  "http://www.w3.org/Graphics/SVG/1.1/DTD/svg11.dtd">
<!-- Created with matplotlib (https://matplotlib.org/) -->
<svg height="288pt" version="1.1" viewBox="0 0 432 288" width="432pt" xmlns="http://www.w3.org/2000/svg" xmlns:xlink="http://www.w3.org/1999/xlink">
 <defs>
  <style type="text/css">
*{stroke-linecap:butt;stroke-linejoin:round;white-space:pre;}
  </style>
 </defs>
 <g id="figure_1">
  <g id="patch_1">
   <path d="M 0 288 
L 432 288 
L 432 0 
L 0 0 
z
" style="fill:#ffffff;"/>
  </g>
  <g id="axes_1">
   <g id="patch_2">
    <path d="M 40.796161 256.929354 
L 429.165354 256.929354 
L 429.165354 2.834646 
L 40.796161 2.834646 
z
" style="fill:#ffffff;"/>
   </g>
   <g id="matplotlib.axis_1">
    <g id="xtick_1">
     <g id="line2d_1">
      <path clip-path="url(#pa8fe5d7af0)" d="M 51.787742 256.929354 
L 51.787742 2.834646 
" style="fill:none;stroke:#000000;stroke-linecap:square;stroke-opacity:0.1;stroke-width:0.5;"/>
     </g>
     <g id="line2d_2">
      <defs>
       <path d="M 0 0 
L 0 -3.5 
" id="m8756c4a69d" style="stroke:#000000;stroke-width:0.8;"/>
      </defs>
      <g>
       <use style="stroke:#000000;stroke-width:0.8;" x="51.787742" xlink:href="#m8756c4a69d" y="256.929354"/>
      </g>
     </g>
     <g id="text_1">
      <!-- $10^{0}$ -->
      <defs>
       <path d="M 12.40625 8.296875 
L 28.515625 8.296875 
L 28.515625 63.921875 
L 10.984375 60.40625 
L 10.984375 69.390625 
L 28.421875 72.90625 
L 38.28125 72.90625 
L 38.28125 8.296875 
L 54.390625 8.296875 
L 54.390625 0 
L 12.40625 0 
z
" id="DejaVuSans-49"/>
       <path d="M 31.78125 66.40625 
Q 24.171875 66.40625 20.328125 58.90625 
Q 16.5 51.421875 16.5 36.375 
Q 16.5 21.390625 20.328125 13.890625 
Q 24.171875 6.390625 31.78125 6.390625 
Q 39.453125 6.390625 43.28125 13.890625 
Q 47.125 21.390625 47.125 36.375 
Q 47.125 51.421875 43.28125 58.90625 
Q 39.453125 66.40625 31.78125 66.40625 
z
M 31.78125 74.21875 
Q 44.046875 74.21875 50.515625 64.515625 
Q 56.984375 54.828125 56.984375 36.375 
Q 56.984375 17.96875 50.515625 8.265625 
Q 44.046875 -1.421875 31.78125 -1.421875 
Q 19.53125 -1.421875 13.0625 8.265625 
Q 6.59375 17.96875 6.59375 36.375 
Q 6.59375 54.828125 13.0625 64.515625 
Q 19.53125 74.21875 31.78125 74.21875 
z
" id="DejaVuSans-48"/>
      </defs>
      <g transform="translate(44.747742 266.508104)scale(0.08 -0.08)">
       <use transform="translate(0 0.765625)" xlink:href="#DejaVuSans-49"/>
       <use transform="translate(63.623047 0.765625)" xlink:href="#DejaVuSans-48"/>
       <use transform="translate(128.203125 39.046875)scale(0.7)" xlink:href="#DejaVuSans-48"/>
      </g>
     </g>
    </g>
    <g id="xtick_2">
     <g id="line2d_3">
      <path clip-path="url(#pa8fe5d7af0)" d="M 162.77187 256.929354 
L 162.77187 2.834646 
" style="fill:none;stroke:#000000;stroke-linecap:square;stroke-opacity:0.1;stroke-width:0.5;"/>
     </g>
     <g id="line2d_4">
      <g>
       <use style="stroke:#000000;stroke-width:0.8;" x="162.77187" xlink:href="#m8756c4a69d" y="256.929354"/>
      </g>
     </g>
     <g id="text_2">
      <!-- $10^{1}$ -->
      <g transform="translate(155.73187 266.508104)scale(0.08 -0.08)">
       <use transform="translate(0 0.684375)" xlink:href="#DejaVuSans-49"/>
       <use transform="translate(63.623047 0.684375)" xlink:href="#DejaVuSans-48"/>
       <use transform="translate(128.203125 38.965625)scale(0.7)" xlink:href="#DejaVuSans-49"/>
      </g>
     </g>
    </g>
    <g id="xtick_3">
     <g id="line2d_5">
      <path clip-path="url(#pa8fe5d7af0)" d="M 273.755999 256.929354 
L 273.755999 2.834646 
" style="fill:none;stroke:#000000;stroke-linecap:square;stroke-opacity:0.1;stroke-width:0.5;"/>
     </g>
     <g id="line2d_6">
      <g>
       <use style="stroke:#000000;stroke-width:0.8;" x="273.755999" xlink:href="#m8756c4a69d" y="256.929354"/>
      </g>
     </g>
     <g id="text_3">
      <!-- $10^{2}$ -->
      <defs>
       <path d="M 19.1875 8.296875 
L 53.609375 8.296875 
L 53.609375 0 
L 7.328125 0 
L 7.328125 8.296875 
Q 12.9375 14.109375 22.625 23.890625 
Q 32.328125 33.6875 34.8125 36.53125 
Q 39.546875 41.84375 41.421875 45.53125 
Q 43.3125 49.21875 43.3125 52.78125 
Q 43.3125 58.59375 39.234375 62.25 
Q 35.15625 65.921875 28.609375 65.921875 
Q 23.96875 65.921875 18.8125 64.3125 
Q 13.671875 62.703125 7.8125 59.421875 
L 7.8125 69.390625 
Q 13.765625 71.78125 18.9375 73 
Q 24.125 74.21875 28.421875 74.21875 
Q 39.75 74.21875 46.484375 68.546875 
Q 53.21875 62.890625 53.21875 53.421875 
Q 53.21875 48.921875 51.53125 44.890625 
Q 49.859375 40.875 45.40625 35.40625 
Q 44.1875 33.984375 37.640625 27.21875 
Q 31.109375 20.453125 19.1875 8.296875 
z
" id="DejaVuSans-50"/>
      </defs>
      <g transform="translate(266.715999 266.508104)scale(0.08 -0.08)">
       <use transform="translate(0 0.765625)" xlink:href="#DejaVuSans-49"/>
       <use transform="translate(63.623047 0.765625)" xlink:href="#DejaVuSans-48"/>
       <use transform="translate(128.203125 39.046875)scale(0.7)" xlink:href="#DejaVuSans-50"/>
      </g>
     </g>
    </g>
    <g id="xtick_4">
     <g id="line2d_7">
      <path clip-path="url(#pa8fe5d7af0)" d="M 384.740128 256.929354 
L 384.740128 2.834646 
" style="fill:none;stroke:#000000;stroke-linecap:square;stroke-opacity:0.1;stroke-width:0.5;"/>
     </g>
     <g id="line2d_8">
      <g>
       <use style="stroke:#000000;stroke-width:0.8;" x="384.740128" xlink:href="#m8756c4a69d" y="256.929354"/>
      </g>
     </g>
     <g id="text_4">
      <!-- $10^{3}$ -->
      <defs>
       <path d="M 40.578125 39.3125 
Q 47.65625 37.796875 51.625 33 
Q 55.609375 28.21875 55.609375 21.1875 
Q 55.609375 10.40625 48.1875 4.484375 
Q 40.765625 -1.421875 27.09375 -1.421875 
Q 22.515625 -1.421875 17.65625 -0.515625 
Q 12.796875 0.390625 7.625 2.203125 
L 7.625 11.71875 
Q 11.71875 9.328125 16.59375 8.109375 
Q 21.484375 6.890625 26.8125 6.890625 
Q 36.078125 6.890625 40.9375 10.546875 
Q 45.796875 14.203125 45.796875 21.1875 
Q 45.796875 27.640625 41.28125 31.265625 
Q 36.765625 34.90625 28.71875 34.90625 
L 20.21875 34.90625 
L 20.21875 43.015625 
L 29.109375 43.015625 
Q 36.375 43.015625 40.234375 45.921875 
Q 44.09375 48.828125 44.09375 54.296875 
Q 44.09375 59.90625 40.109375 62.90625 
Q 36.140625 65.921875 28.71875 65.921875 
Q 24.65625 65.921875 20.015625 65.03125 
Q 15.375 64.15625 9.8125 62.3125 
L 9.8125 71.09375 
Q 15.4375 72.65625 20.34375 73.4375 
Q 25.25 74.21875 29.59375 74.21875 
Q 40.828125 74.21875 47.359375 69.109375 
Q 53.90625 64.015625 53.90625 55.328125 
Q 53.90625 49.265625 50.4375 45.09375 
Q 46.96875 40.921875 40.578125 39.3125 
z
" id="DejaVuSans-51"/>
      </defs>
      <g transform="translate(377.700128 266.508104)scale(0.08 -0.08)">
       <use transform="translate(0 0.765625)" xlink:href="#DejaVuSans-49"/>
       <use transform="translate(63.623047 0.765625)" xlink:href="#DejaVuSans-48"/>
       <use transform="translate(128.203125 39.046875)scale(0.7)" xlink:href="#DejaVuSans-51"/>
      </g>
     </g>
    </g>
    <g id="text_5">
     <!-- Epochs -->
     <defs>
      <path d="M 9.8125 72.90625 
L 55.90625 72.90625 
L 55.90625 64.59375 
L 19.671875 64.59375 
L 19.671875 43.015625 
L 54.390625 43.015625 
L 54.390625 34.71875 
L 19.671875 34.71875 
L 19.671875 8.296875 
L 56.78125 8.296875 
L 56.78125 0 
L 9.8125 0 
z
" id="DejaVuSans-69"/>
      <path d="M 18.109375 8.203125 
L 18.109375 -20.796875 
L 9.078125 -20.796875 
L 9.078125 54.6875 
L 18.109375 54.6875 
L 18.109375 46.390625 
Q 20.953125 51.265625 25.265625 53.625 
Q 29.59375 56 35.59375 56 
Q 45.5625 56 51.78125 48.09375 
Q 58.015625 40.1875 58.015625 27.296875 
Q 58.015625 14.40625 51.78125 6.484375 
Q 45.5625 -1.421875 35.59375 -1.421875 
Q 29.59375 -1.421875 25.265625 0.953125 
Q 20.953125 3.328125 18.109375 8.203125 
z
M 48.6875 27.296875 
Q 48.6875 37.203125 44.609375 42.84375 
Q 40.53125 48.484375 33.40625 48.484375 
Q 26.265625 48.484375 22.1875 42.84375 
Q 18.109375 37.203125 18.109375 27.296875 
Q 18.109375 17.390625 22.1875 11.75 
Q 26.265625 6.109375 33.40625 6.109375 
Q 40.53125 6.109375 44.609375 11.75 
Q 48.6875 17.390625 48.6875 27.296875 
z
" id="DejaVuSans-112"/>
      <path d="M 30.609375 48.390625 
Q 23.390625 48.390625 19.1875 42.75 
Q 14.984375 37.109375 14.984375 27.296875 
Q 14.984375 17.484375 19.15625 11.84375 
Q 23.34375 6.203125 30.609375 6.203125 
Q 37.796875 6.203125 41.984375 11.859375 
Q 46.1875 17.53125 46.1875 27.296875 
Q 46.1875 37.015625 41.984375 42.703125 
Q 37.796875 48.390625 30.609375 48.390625 
z
M 30.609375 56 
Q 42.328125 56 49.015625 48.375 
Q 55.71875 40.765625 55.71875 27.296875 
Q 55.71875 13.875 49.015625 6.21875 
Q 42.328125 -1.421875 30.609375 -1.421875 
Q 18.84375 -1.421875 12.171875 6.21875 
Q 5.515625 13.875 5.515625 27.296875 
Q 5.515625 40.765625 12.171875 48.375 
Q 18.84375 56 30.609375 56 
z
" id="DejaVuSans-111"/>
      <path d="M 48.78125 52.59375 
L 48.78125 44.1875 
Q 44.96875 46.296875 41.140625 47.34375 
Q 37.3125 48.390625 33.40625 48.390625 
Q 24.65625 48.390625 19.8125 42.84375 
Q 14.984375 37.3125 14.984375 27.296875 
Q 14.984375 17.28125 19.8125 11.734375 
Q 24.65625 6.203125 33.40625 6.203125 
Q 37.3125 6.203125 41.140625 7.25 
Q 44.96875 8.296875 48.78125 10.40625 
L 48.78125 2.09375 
Q 45.015625 0.34375 40.984375 -0.53125 
Q 36.96875 -1.421875 32.421875 -1.421875 
Q 20.0625 -1.421875 12.78125 6.34375 
Q 5.515625 14.109375 5.515625 27.296875 
Q 5.515625 40.671875 12.859375 48.328125 
Q 20.21875 56 33.015625 56 
Q 37.15625 56 41.109375 55.140625 
Q 45.0625 54.296875 48.78125 52.59375 
z
" id="DejaVuSans-99"/>
      <path d="M 54.890625 33.015625 
L 54.890625 0 
L 45.90625 0 
L 45.90625 32.71875 
Q 45.90625 40.484375 42.875 44.328125 
Q 39.84375 48.1875 33.796875 48.1875 
Q 26.515625 48.1875 22.3125 43.546875 
Q 18.109375 38.921875 18.109375 30.90625 
L 18.109375 0 
L 9.078125 0 
L 9.078125 75.984375 
L 18.109375 75.984375 
L 18.109375 46.1875 
Q 21.34375 51.125 25.703125 53.5625 
Q 30.078125 56 35.796875 56 
Q 45.21875 56 50.046875 50.171875 
Q 54.890625 44.34375 54.890625 33.015625 
z
" id="DejaVuSans-104"/>
      <path d="M 44.28125 53.078125 
L 44.28125 44.578125 
Q 40.484375 46.53125 36.375 47.5 
Q 32.28125 48.484375 27.875 48.484375 
Q 21.1875 48.484375 17.84375 46.4375 
Q 14.5 44.390625 14.5 40.28125 
Q 14.5 37.15625 16.890625 35.375 
Q 19.28125 33.59375 26.515625 31.984375 
L 29.59375 31.296875 
Q 39.15625 29.25 43.1875 25.515625 
Q 47.21875 21.78125 47.21875 15.09375 
Q 47.21875 7.46875 41.1875 3.015625 
Q 35.15625 -1.421875 24.609375 -1.421875 
Q 20.21875 -1.421875 15.453125 -0.5625 
Q 10.6875 0.296875 5.421875 2 
L 5.421875 11.28125 
Q 10.40625 8.6875 15.234375 7.390625 
Q 20.0625 6.109375 24.8125 6.109375 
Q 31.15625 6.109375 34.5625 8.28125 
Q 37.984375 10.453125 37.984375 14.40625 
Q 37.984375 18.0625 35.515625 20.015625 
Q 33.0625 21.96875 24.703125 23.78125 
L 21.578125 24.515625 
Q 13.234375 26.265625 9.515625 29.90625 
Q 5.8125 33.546875 5.8125 39.890625 
Q 5.8125 47.609375 11.28125 51.796875 
Q 16.75 56 26.8125 56 
Q 31.78125 56 36.171875 55.265625 
Q 40.578125 54.546875 44.28125 53.078125 
z
" id="DejaVuSans-115"/>
     </defs>
     <g transform="translate(215.27357 280.530136)scale(0.11 -0.11)">
      <use xlink:href="#DejaVuSans-69"/>
      <use x="63.183594" xlink:href="#DejaVuSans-112"/>
      <use x="126.660156" xlink:href="#DejaVuSans-111"/>
      <use x="187.841797" xlink:href="#DejaVuSans-99"/>
      <use x="242.822266" xlink:href="#DejaVuSans-104"/>
      <use x="306.201172" xlink:href="#DejaVuSans-115"/>
     </g>
    </g>
   </g>
   <g id="matplotlib.axis_2">
    <g id="ytick_1">
     <g id="line2d_9">
      <path clip-path="url(#pa8fe5d7af0)" d="M 40.796161 223.816452 
L 429.165354 223.816452 
" style="fill:none;stroke:#000000;stroke-linecap:square;stroke-opacity:0.1;stroke-width:0.5;"/>
     </g>
     <g id="line2d_10">
      <defs>
       <path d="M 0 0 
L 3.5 0 
" id="m6b3321bc60" style="stroke:#000000;stroke-width:0.8;"/>
      </defs>
      <g>
       <use style="stroke:#000000;stroke-width:0.8;" x="40.796161" xlink:href="#m6b3321bc60" y="223.816452"/>
      </g>
     </g>
     <g id="text_6">
      <!-- $10^{-5}$ -->
      <defs>
       <path d="M 10.59375 35.5 
L 73.1875 35.5 
L 73.1875 27.203125 
L 10.59375 27.203125 
z
" id="DejaVuSans-8722"/>
       <path d="M 10.796875 72.90625 
L 49.515625 72.90625 
L 49.515625 64.59375 
L 19.828125 64.59375 
L 19.828125 46.734375 
Q 21.96875 47.46875 24.109375 47.828125 
Q 26.265625 48.1875 28.421875 48.1875 
Q 40.625 48.1875 47.75 41.5 
Q 54.890625 34.8125 54.890625 23.390625 
Q 54.890625 11.625 47.5625 5.09375 
Q 40.234375 -1.421875 26.90625 -1.421875 
Q 22.3125 -1.421875 17.546875 -0.640625 
Q 12.796875 0.140625 7.71875 1.703125 
L 7.71875 11.625 
Q 12.109375 9.234375 16.796875 8.0625 
Q 21.484375 6.890625 26.703125 6.890625 
Q 35.15625 6.890625 40.078125 11.328125 
Q 45.015625 15.765625 45.015625 23.390625 
Q 45.015625 31 40.078125 35.4375 
Q 35.15625 39.890625 26.703125 39.890625 
Q 22.75 39.890625 18.8125 39.015625 
Q 14.890625 38.140625 10.796875 36.28125 
z
" id="DejaVuSans-53"/>
      </defs>
      <g transform="translate(18.496161 226.855827)scale(0.08 -0.08)">
       <use transform="translate(0 0.684375)" xlink:href="#DejaVuSans-49"/>
       <use transform="translate(63.623047 0.684375)" xlink:href="#DejaVuSans-48"/>
       <use transform="translate(128.203125 38.965625)scale(0.7)" xlink:href="#DejaVuSans-8722"/>
       <use transform="translate(186.855469 38.965625)scale(0.7)" xlink:href="#DejaVuSans-53"/>
      </g>
     </g>
    </g>
    <g id="ytick_2">
     <g id="line2d_11">
      <path clip-path="url(#pa8fe5d7af0)" d="M 40.796161 185.328631 
L 429.165354 185.328631 
" style="fill:none;stroke:#000000;stroke-linecap:square;stroke-opacity:0.1;stroke-width:0.5;"/>
     </g>
     <g id="line2d_12">
      <g>
       <use style="stroke:#000000;stroke-width:0.8;" x="40.796161" xlink:href="#m6b3321bc60" y="185.328631"/>
      </g>
     </g>
     <g id="text_7">
      <!-- $10^{-4}$ -->
      <defs>
       <path d="M 37.796875 64.3125 
L 12.890625 25.390625 
L 37.796875 25.390625 
z
M 35.203125 72.90625 
L 47.609375 72.90625 
L 47.609375 25.390625 
L 58.015625 25.390625 
L 58.015625 17.1875 
L 47.609375 17.1875 
L 47.609375 0 
L 37.796875 0 
L 37.796875 17.1875 
L 4.890625 17.1875 
L 4.890625 26.703125 
z
" id="DejaVuSans-52"/>
      </defs>
      <g transform="translate(18.496161 188.368006)scale(0.08 -0.08)">
       <use transform="translate(0 0.684375)" xlink:href="#DejaVuSans-49"/>
       <use transform="translate(63.623047 0.684375)" xlink:href="#DejaVuSans-48"/>
       <use transform="translate(128.203125 38.965625)scale(0.7)" xlink:href="#DejaVuSans-8722"/>
       <use transform="translate(186.855469 38.965625)scale(0.7)" xlink:href="#DejaVuSans-52"/>
      </g>
     </g>
    </g>
    <g id="ytick_3">
     <g id="line2d_13">
      <path clip-path="url(#pa8fe5d7af0)" d="M 40.796161 146.84081 
L 429.165354 146.84081 
" style="fill:none;stroke:#000000;stroke-linecap:square;stroke-opacity:0.1;stroke-width:0.5;"/>
     </g>
     <g id="line2d_14">
      <g>
       <use style="stroke:#000000;stroke-width:0.8;" x="40.796161" xlink:href="#m6b3321bc60" y="146.84081"/>
      </g>
     </g>
     <g id="text_8">
      <!-- $10^{-3}$ -->
      <g transform="translate(18.496161 149.880185)scale(0.08 -0.08)">
       <use transform="translate(0 0.765625)" xlink:href="#DejaVuSans-49"/>
       <use transform="translate(63.623047 0.765625)" xlink:href="#DejaVuSans-48"/>
       <use transform="translate(128.203125 39.046875)scale(0.7)" xlink:href="#DejaVuSans-8722"/>
       <use transform="translate(186.855469 39.046875)scale(0.7)" xlink:href="#DejaVuSans-51"/>
      </g>
     </g>
    </g>
    <g id="ytick_4">
     <g id="line2d_15">
      <path clip-path="url(#pa8fe5d7af0)" d="M 40.796161 108.352989 
L 429.165354 108.352989 
" style="fill:none;stroke:#000000;stroke-linecap:square;stroke-opacity:0.1;stroke-width:0.5;"/>
     </g>
     <g id="line2d_16">
      <g>
       <use style="stroke:#000000;stroke-width:0.8;" x="40.796161" xlink:href="#m6b3321bc60" y="108.352989"/>
      </g>
     </g>
     <g id="text_9">
      <!-- $10^{-2}$ -->
      <g transform="translate(18.496161 111.392364)scale(0.08 -0.08)">
       <use transform="translate(0 0.765625)" xlink:href="#DejaVuSans-49"/>
       <use transform="translate(63.623047 0.765625)" xlink:href="#DejaVuSans-48"/>
       <use transform="translate(128.203125 39.046875)scale(0.7)" xlink:href="#DejaVuSans-8722"/>
       <use transform="translate(186.855469 39.046875)scale(0.7)" xlink:href="#DejaVuSans-50"/>
      </g>
     </g>
    </g>
    <g id="ytick_5">
     <g id="line2d_17">
      <path clip-path="url(#pa8fe5d7af0)" d="M 40.796161 69.865168 
L 429.165354 69.865168 
" style="fill:none;stroke:#000000;stroke-linecap:square;stroke-opacity:0.1;stroke-width:0.5;"/>
     </g>
     <g id="line2d_18">
      <g>
       <use style="stroke:#000000;stroke-width:0.8;" x="40.796161" xlink:href="#m6b3321bc60" y="69.865168"/>
      </g>
     </g>
     <g id="text_10">
      <!-- $10^{-1}$ -->
      <g transform="translate(18.496161 72.904543)scale(0.08 -0.08)">
       <use transform="translate(0 0.684375)" xlink:href="#DejaVuSans-49"/>
       <use transform="translate(63.623047 0.684375)" xlink:href="#DejaVuSans-48"/>
       <use transform="translate(128.203125 38.965625)scale(0.7)" xlink:href="#DejaVuSans-8722"/>
       <use transform="translate(186.855469 38.965625)scale(0.7)" xlink:href="#DejaVuSans-49"/>
      </g>
     </g>
    </g>
    <g id="ytick_6">
     <g id="line2d_19">
      <path clip-path="url(#pa8fe5d7af0)" d="M 40.796161 31.377347 
L 429.165354 31.377347 
" style="fill:none;stroke:#000000;stroke-linecap:square;stroke-opacity:0.1;stroke-width:0.5;"/>
     </g>
     <g id="line2d_20">
      <g>
       <use style="stroke:#000000;stroke-width:0.8;" x="40.796161" xlink:href="#m6b3321bc60" y="31.377347"/>
      </g>
     </g>
     <g id="text_11">
      <!-- $10^{0}$ -->
      <g transform="translate(23.216161 34.416722)scale(0.08 -0.08)">
       <use transform="translate(0 0.765625)" xlink:href="#DejaVuSans-49"/>
       <use transform="translate(63.623047 0.765625)" xlink:href="#DejaVuSans-48"/>
       <use transform="translate(128.203125 39.046875)scale(0.7)" xlink:href="#DejaVuSans-48"/>
      </g>
     </g>
    </g>
    <g id="text_12">
     <!-- Loss -->
     <defs>
      <path d="M 9.8125 72.90625 
L 19.671875 72.90625 
L 19.671875 8.296875 
L 55.171875 8.296875 
L 55.171875 0 
L 9.8125 0 
z
" id="DejaVuSans-76"/>
     </defs>
     <g transform="translate(12.208504 142.041297)rotate(-90)scale(0.11 -0.11)">
      <use xlink:href="#DejaVuSans-76"/>
      <use x="55.697266" xlink:href="#DejaVuSans-111"/>
      <use x="116.878906" xlink:href="#DejaVuSans-115"/>
      <use x="168.978516" xlink:href="#DejaVuSans-115"/>
     </g>
    </g>
   </g>
   <g id="line2d_21">
    <path clip-path="url(#pa8fe5d7af0)" d="M 51.787742 62.17124 
L 85.197293 68.890296 
L 104.740628 79.000582 
L 118.606845 87.724093 
L 129.362318 89.546543 
L 138.15018 90.218668 
L 145.580211 91.625887 
L 152.016397 93.501775 
L 157.693515 95.912447 
L 162.77187 101.18534 
L 167.365801 107.440509 
L 171.559732 108.581519 
L 175.417774 112.16626 
L 178.989763 116.445432 
L 182.315205 123.18845 
L 185.425949 123.925879 
L 188.348043 128.689191 
L 191.103067 131.083035 
L 193.709096 133.106389 
L 196.181422 134.403998 
L 198.533098 136.38891 
L 200.775353 138.785765 
L 202.917919 142.030982 
L 204.969284 149.817056 
L 206.936895 153.025393 
L 208.827326 159.528881 
L 212.399315 169.999462 
L 214.090709 171.901922 
L 215.724757 177.645179 
L 217.30522 179.161509 
L 218.8355 183.776565 
L 220.318688 187.07229 
L 221.757595 188.522792 
L 223.154788 190.756969 
L 224.512619 192.668896 
L 225.833244 194.139947 
L 227.118648 195.857906 
L 228.370661 199.788453 
L 229.590974 202.800683 
L 230.781153 204.081354 
L 231.94265 205.888731 
L 233.076815 208.186584 
L 235.268092 209.902246 
L 236.327471 210.334572 
L 237.364065 210.570084 
L 239.372681 210.700565 
L 242.236878 210.81007 
L 244.055954 210.925459 
L 246.661983 211.156052 
L 247.500261 211.22317 
L 249.134309 211.561558 
L 257.92217 212.723901 
L 261.780212 213.18625 
L 264.190704 213.379223 
L 265.352202 213.598081 
L 268.139093 213.859882 
L 269.737023 214.152118 
L 270.773617 214.374497 
L 272.782233 214.570336 
L 273.755999 214.702031 
L 274.710482 214.870132 
L 275.180727 215.29773 
L 278.78613 215.626772 
L 280.071534 216.030064 
L 281.323547 216.159499 
L 281.733761 216.378012 
L 283.34057 216.605065 
L 284.124323 216.675278 
L 285.276565 217.012358 
L 286.029702 217.134023 
L 287.137792 217.505999 
L 288.576698 217.751717 
L 289.973892 217.997759 
L 290.657588 218.132317 
L 291.331722 218.361182 
L 295.189764 219.258866 
L 296.710389 219.562525 
L 297.00884 219.815682 
L 297.600256 219.969243 
L 298.473992 220.238472 
L 298.761753 220.374841 
L 299.332172 220.458705 
L 301.004009 220.876687 
L 301.277096 221.285569 
L 301.818672 221.397787 
L 302.619795 221.653672 
L 302.883905 221.901687 
L 303.146574 221.926943 
L 303.667658 222.270204 
L 304.183169 222.363729 
L 305.448328 222.868412 
L 305.945238 223.038223 
L 306.437077 223.228066 
L 307.883179 223.886097 
L 308.590279 224.088291 
L 308.823692 224.309588 
L 309.287156 224.482954 
L 311.319298 225.468976 
L 311.978075 225.816757 
L 312.62797 226.227945 
L 312.842669 226.468578 
L 313.269219 226.566422 
L 314.319365 227.266481 
L 315.347118 227.767469 
L 315.550064 227.807748 
L 315.953412 228.042288 
L 318.495979 229.559904 
L 319.064156 229.872629 
L 319.439253 229.877824 
L 319.625713 230.138305 
L 320.547343 230.194634 
L 320.911117 230.195695 
L 320.911117 230.195695 
" style="fill:none;stroke:#ff0000;stroke-linecap:round;"/>
   </g>
   <g id="line2d_22">
    <path clip-path="url(#pa8fe5d7af0)" d="M 51.787742 25.72666 
L 85.197293 60.680578 
L 104.740628 62.91562 
L 118.606845 72.707879 
L 129.362318 73.611878 
L 138.15018 74.084949 
L 145.580211 75.356629 
L 152.016397 75.540279 
L 157.693515 75.645401 
L 162.77187 75.709978 
L 167.365801 75.732324 
L 171.559732 75.828378 
L 175.417774 80.610167 
L 178.989763 80.794523 
L 182.315205 82.733806 
L 185.425949 87.303622 
L 188.348043 88.327989 
L 191.103067 90.890852 
L 193.709096 91.855079 
L 196.181422 93.330737 
L 198.533098 94.321424 
L 200.775353 94.915393 
L 202.917919 95.140438 
L 204.969284 96.741001 
L 206.936895 99.390807 
L 208.827326 101.999968 
L 210.646402 102.540404 
L 212.399315 105.07732 
L 214.090709 107.228507 
L 215.724757 108.604826 
L 217.30522 112.280524 
L 218.8355 113.3439 
L 220.318688 115.850476 
L 221.757595 118.211074 
L 223.154788 122.733105 
L 224.512619 129.409302 
L 225.833244 131.958724 
L 227.118648 139.016848 
L 228.370661 150.644007 
L 229.590974 161.005642 
L 230.781153 167.518902 
L 231.94265 171.322273 
L 233.076815 173.127751 
L 234.184905 177.397207 
L 235.268092 181.094364 
L 236.327471 202.218506 
L 237.364065 204.225406 
L 238.378835 209.553398 
L 239.372681 211.679653 
L 240.346447 212.908669 
L 241.30093 213.165507 
L 242.236878 213.323054 
L 243.154997 213.34951 
L 244.055954 213.351316 
L 244.940378 213.351769 
L 245.808867 213.351851 
L 246.661983 213.351851 
" style="fill:none;stroke:#ff0000;stroke-linecap:round;"/>
   </g>
   <g id="patch_3">
    <path d="M 40.796161 256.929354 
L 40.796161 2.834646 
" style="fill:none;stroke:#000000;stroke-linecap:square;stroke-linejoin:miter;"/>
   </g>
   <g id="patch_4">
    <path d="M 40.796161 256.929354 
L 429.165354 256.929354 
" style="fill:none;stroke:#000000;stroke-linecap:square;stroke-linejoin:miter;"/>
   </g>
   <g id="line2d_23">
    <path clip-path="url(#pa8fe5d7af0)" d="M 51.787742 54.375576 
L 85.197293 67.622356 
L 104.740628 70.56451 
L 118.606845 75.576338 
L 129.362318 77.136646 
L 138.15018 80.485895 
L 145.580211 81.560812 
L 152.016397 83.674745 
L 157.693515 84.062009 
L 162.77187 85.131495 
L 167.365801 85.64262 
L 171.559732 86.342582 
L 175.417774 86.861216 
L 178.989763 87.993845 
L 182.315205 88.585031 
L 185.425949 89.027331 
L 188.348043 97.184267 
L 191.103067 97.225313 
L 193.709096 98.327957 
L 196.181422 99.375071 
L 198.533098 100.926685 
L 200.775353 102.437911 
L 202.917919 102.758413 
L 204.969284 103.447463 
L 206.936895 104.395942 
L 208.827326 107.563101 
L 210.646402 113.344701 
L 212.399315 118.654005 
L 214.090709 120.953224 
L 215.724757 122.348759 
L 217.30522 122.547117 
L 218.8355 122.743324 
L 220.318688 124.112216 
L 221.757595 125.651758 
L 223.154788 127.296935 
L 224.512619 131.626866 
L 225.833244 137.87032 
L 227.118648 138.468965 
L 228.370661 139.837071 
L 229.590974 144.748528 
L 230.781153 151.02013 
L 231.94265 164.698646 
L 233.076815 165.5055 
L 234.184905 168.302894 
L 235.268092 168.975875 
L 236.327471 171.908793 
L 237.364065 175.335867 
L 238.378835 182.136277 
L 239.372681 190.765084 
L 240.346447 200.900672 
L 241.30093 206.750695 
L 242.236878 227.255811 
L 243.154997 229.41167 
L 244.055954 235.824982 
L 244.940378 240.049406 
L 245.808867 247.573968 
L 246.661983 249.403911 
L 247.500261 249.514787 
L 248.324209 249.621833 
L 249.134309 249.705087 
L 249.931018 249.735136 
L 250.714772 249.737995 
L 251.485985 249.737995 
" style="fill:none;stroke:#ff0000;stroke-linecap:round;"/>
   </g>
   <g id="line2d_24">
    <path clip-path="url(#pa8fe5d7af0)" d="M 51.787742 63.574304 
L 85.197293 66.870203 
L 104.740628 73.304446 
L 118.606845 79.528205 
L 129.362318 82.831082 
L 138.15018 83.598156 
L 145.580211 84.886142 
L 152.016397 85.82691 
L 157.693515 88.685725 
L 162.77187 93.18943 
L 167.365801 93.881345 
L 171.559732 94.911128 
L 175.417774 95.86411 
L 178.989763 96.392092 
L 182.315205 98.020144 
L 185.425949 99.410701 
L 188.348043 103.13286 
L 191.103067 104.285913 
L 193.709096 105.805783 
L 196.181422 109.170273 
L 198.533098 111.223022 
L 200.775353 115.079084 
L 202.917919 120.361064 
L 204.969284 125.288016 
L 206.936895 128.591343 
L 208.827326 135.046495 
L 210.646402 139.891507 
L 212.399315 145.512888 
L 214.090709 153.640453 
L 215.724757 155.190824 
L 217.30522 160.17499 
L 218.8355 168.672188 
L 220.318688 179.208868 
L 221.757595 184.425654 
L 223.154788 188.044652 
L 224.512619 192.151804 
L 225.833244 195.063983 
L 227.118648 200.387634 
L 228.370661 206.627558 
L 229.590974 208.317252 
L 230.781153 209.263398 
L 231.94265 209.535175 
L 233.076815 209.556627 
L 234.184905 209.557324 
L 235.268092 209.557673 
L 236.327471 209.564137 
L 237.364065 209.569352 
L 238.378835 209.575125 
L 239.372681 209.579284 
L 240.346447 209.582982 
L 241.30093 209.58371 
L 242.236878 209.584029 
L 243.154997 209.584168 
L 244.055954 209.584292 
L 244.940378 209.584292 
" style="fill:none;stroke:#ff0000;stroke-linecap:round;"/>
   </g>
   <g id="line2d_25">
    <path clip-path="url(#pa8fe5d7af0)" d="M 51.787742 42.180274 
L 85.197293 66.937159 
L 104.740628 75.206553 
L 118.606845 79.719956 
L 129.362318 82.405258 
L 138.15018 83.563635 
L 145.580211 84.315577 
L 152.016397 85.137391 
L 157.693515 85.806107 
L 162.77187 86.196193 
L 167.365801 87.014086 
L 171.559732 90.662523 
L 175.417774 95.545066 
L 178.989763 98.223277 
L 182.315205 101.331102 
L 185.425949 107.431369 
L 188.348043 110.573746 
L 191.103067 111.792111 
L 193.709096 113.976169 
L 196.181422 116.045958 
L 198.533098 118.963059 
L 200.775353 121.423062 
L 202.917919 124.780042 
L 204.969284 126.816057 
L 206.936895 131.05037 
L 208.827326 136.361034 
L 210.646402 137.422157 
L 212.399315 140.484663 
L 214.090709 141.819734 
L 215.724757 144.945113 
L 217.30522 155.250134 
L 218.8355 161.378765 
L 220.318688 167.347593 
L 221.757595 171.357097 
L 223.154788 182.172411 
L 224.512619 192.069985 
L 225.833244 204.440311 
L 227.118648 208.434397 
L 228.370661 210.540897 
L 229.590974 211.880627 
L 230.781153 212.528374 
L 231.94265 212.60749 
L 233.076815 212.61067 
L 234.184905 212.610763 
L 235.268092 212.610763 
" style="fill:none;stroke:#ff0000;stroke-linecap:round;"/>
   </g>
   <g id="line2d_26">
    <path clip-path="url(#pa8fe5d7af0)" d="M 51.787742 10.026005 
L 85.197293 19.234227 
L 104.740628 79.845627 
L 118.606845 80.244036 
L 129.362318 81.719748 
L 138.15018 83.160103 
L 145.580211 84.009704 
L 157.693515 87.011313 
L 162.77187 88.824213 
L 167.365801 89.804298 
L 171.559732 91.719469 
L 175.417774 92.917264 
L 178.989763 95.131433 
L 182.315205 95.723151 
L 185.425949 96.723384 
L 188.348043 101.014623 
L 191.103067 102.860109 
L 193.709096 105.745399 
L 196.181422 108.030176 
L 198.533098 111.334433 
L 200.775353 114.92223 
L 202.917919 120.840855 
L 204.969284 126.144459 
L 206.936895 128.257786 
L 208.827326 129.577752 
L 210.646402 132.44989 
L 212.399315 136.747759 
L 214.090709 142.628276 
L 215.724757 146.681696 
L 217.30522 155.22162 
L 218.8355 159.595025 
L 220.318688 166.605085 
L 223.154788 172.460456 
L 225.833244 182.749298 
L 227.118648 185.026106 
L 228.370661 186.57055 
L 230.781153 191.290758 
L 231.94265 195.29469 
L 234.184905 200.308565 
L 235.268092 201.120246 
L 236.327471 202.645999 
L 237.364065 204.497135 
L 238.378835 209.049855 
L 239.372681 209.450023 
L 240.346447 210.519027 
L 242.236878 211.216543 
L 243.154997 211.538563 
L 245.808867 211.616445 
L 246.661983 211.624201 
L 247.500261 211.83928 
L 252.245052 212.191606 
L 253.72824 212.388071 
L 254.453063 212.636324 
L 256.56434 212.851408 
L 257.92217 212.946411 
L 258.587006 213.190938 
L 261.780212 213.673838 
L 263.000526 213.822593 
L 264.774952 214.244927 
L 272.287871 215.378359 
L 274.235603 215.879591 
L 277.017132 216.086048 
L 277.909746 216.317858 
L 278.34993 216.660563 
L 280.071534 216.840218 
L 283.34057 217.573001 
L 284.895536 217.773116 
L 285.654604 217.96408 
L 286.029702 218.149454 
L 286.771252 218.282042 
L 290.316952 219.016163 
L 291.996557 219.50895 
L 292.976926 219.654995 
L 293.299334 219.942275 
L 294.253817 220.152929 
L 294.879797 220.313438 
L 295.803783 220.524084 
L 298.473992 221.186339 
L 298.761753 221.422051 
L 299.332172 221.572348 
L 299.895918 221.69257 
L 300.453148 221.922292 
L 302.087196 222.5202 
L 303.146574 222.72692 
L 304.946242 223.413101 
L 305.197939 223.618691 
L 305.697423 223.733865 
L 307.645155 224.278173 
L 307.883179 224.474362 
L 308.120033 224.49713 
L 308.35573 224.741341 
L 309.287156 225.057266 
L 309.746205 225.234159 
L 309.9741 225.336248 
L 310.200923 225.685028 
L 310.651392 225.822401 
L 311.097689 226.141455 
L 311.539892 226.247231 
L 311.759482 226.329818 
L 311.978075 226.593011 
L 312.412311 226.685698 
L 312.62797 226.757922 
L 312.842669 226.951828 
L 313.056416 226.9801 
L 313.481086 227.193674 
L 314.111158 227.324674 
L 314.526676 227.42114 
L 317.727838 227.755111 
L 317.727838 227.755111 
" style="fill:none;stroke:#ff0000;stroke-linecap:round;"/>
   </g>
   <g id="line2d_27">
    <path clip-path="url(#pa8fe5d7af0)" d="M 51.787742 55.241377 
L 85.197293 66.642465 
L 104.740628 69.248712 
L 118.606845 75.341956 
L 129.362318 75.681578 
L 138.15018 77.287046 
L 145.580211 82.034803 
L 152.016397 82.472533 
L 157.693515 83.876681 
L 162.77187 85.09397 
L 167.365801 85.817831 
L 171.559732 92.949409 
L 175.417774 93.453378 
L 178.989763 96.488502 
L 182.315205 100.144366 
L 185.425949 103.615325 
L 188.348043 105.295877 
L 191.103067 110.235526 
L 193.709096 115.729377 
L 196.181422 124.206111 
L 198.533098 125.824822 
L 200.775353 139.169725 
L 202.917919 154.424979 
L 204.969284 155.118626 
L 206.936895 155.492891 
L 208.827326 160.206385 
L 210.646402 162.85265 
L 212.399315 169.946683 
L 214.090709 183.888574 
L 215.724757 189.283302 
L 217.30522 192.448099 
L 218.8355 194.629382 
L 220.318688 196.918708 
L 221.757595 201.721091 
L 223.154788 206.37272 
L 224.512619 210.5498 
L 225.833244 212.858101 
L 227.118648 213.533196 
L 228.370661 213.951429 
L 229.590974 214.010159 
L 230.781153 214.015964 
L 231.94265 214.016773 
L 233.076815 214.017221 
L 234.184905 214.017221 
" style="fill:none;stroke:#ff0000;stroke-linecap:round;"/>
   </g>
   <g id="line2d_28">
    <path clip-path="url(#pa8fe5d7af0)" d="M 51.787742 20.710028 
L 85.197293 33.953236 
L 104.740628 50.499598 
L 118.606845 72.901212 
L 129.362318 78.291832 
L 138.15018 80.235535 
L 145.580211 80.906518 
L 152.016397 82.287193 
L 157.693515 84.492902 
L 162.77187 87.873496 
L 167.365801 89.2119 
L 171.559732 90.016479 
L 178.989763 93.519696 
L 182.315205 96.534811 
L 185.425949 96.939169 
L 188.348043 98.585826 
L 191.103067 99.796338 
L 200.775353 102.143728 
L 202.917919 104.233374 
L 204.969284 105.032047 
L 208.827326 110.267914 
L 210.646402 111.904835 
L 212.399315 115.868228 
L 214.090709 121.008824 
L 215.724757 123.018441 
L 217.30522 125.807261 
L 218.8355 129.004769 
L 220.318688 131.075 
L 221.757595 132.34366 
L 225.833244 155.69748 
L 227.118648 159.217208 
L 228.370661 165.020389 
L 229.590974 174.520648 
L 231.94265 188.276637 
L 233.076815 193.666363 
L 234.184905 202.642536 
L 235.268092 203.777936 
L 236.327471 204.482744 
L 237.364065 204.724254 
L 244.055954 204.853015 
L 246.661983 205.065961 
L 249.134309 205.137207 
L 252.992351 205.617012 
L 259.889782 205.778988 
L 263.000526 206.429152 
L 266.486367 206.837294 
L 269.737023 207.302857 
L 277.465505 207.688206 
L 285.654604 208.075498 
L 287.137792 208.193467 
L 288.220979 208.365018 
L 289.973892 208.537014 
L 297.00884 208.616027 
L 302.883905 208.647184 
L 302.883905 208.647184 
" style="fill:none;stroke:#ff0000;stroke-linecap:round;"/>
   </g>
   <g id="line2d_29">
    <path clip-path="url(#pa8fe5d7af0)" d="M 51.787742 55.328951 
L 85.197293 59.318783 
L 104.740628 65.687323 
L 118.606845 74.798658 
L 129.362318 78.436048 
L 138.15018 82.949173 
L 145.580211 84.483621 
L 152.016397 88.041267 
L 157.693515 88.63773 
L 162.77187 90.7907 
L 167.365801 91.631203 
L 175.417774 92.884133 
L 178.989763 95.825928 
L 182.315205 98.261928 
L 185.425949 103.37999 
L 188.348043 105.083196 
L 191.103067 106.501453 
L 193.709096 110.493523 
L 196.181422 122.808196 
L 198.533098 124.850317 
L 200.775353 129.215926 
L 202.917919 131.08083 
L 206.936895 136.144261 
L 208.827326 138.192573 
L 210.646402 140.427064 
L 214.090709 151.468726 
L 215.724757 159.410108 
L 217.30522 161.124921 
L 218.8355 168.335488 
L 220.318688 176.999228 
L 221.757595 184.696264 
L 223.154788 199.324023 
L 224.512619 202.568376 
L 225.833244 204.90699 
L 227.118648 207.731778 
L 228.370661 208.397862 
L 229.590974 208.610313 
L 239.372681 208.785565 
L 255.167147 209.746397 
L 258.587006 210.090371 
L 264.774952 210.646645 
L 265.352202 210.815519 
L 267.043596 210.985227 
L 267.594457 211.142141 
L 270.258106 211.308032 
L 274.235603 211.712329 
L 277.909746 211.917053 
L 281.323547 212.423804 
L 283.34057 212.559287 
L 283.734039 212.712438 
L 286.401903 212.939165 
L 287.862614 213.087318 
L 289.973892 213.318168 
L 301.004009 214.588208 
L 302.883905 214.758121 
L 304.693225 214.996199 
L 306.437077 215.171914 
L 307.405949 215.319381 
L 310.651392 215.705457 
L 311.539892 215.816749 
L 312.62797 216.047391 
L 313.056416 216.159589 
L 314.319365 216.394482 
L 315.143313 216.609218 
L 316.353413 216.77128 
L 317.921024 217.028593 
L 319.439253 217.315324 
L 319.996483 217.404945 
L 325.898786 218.78966 
L 326.869285 219.102494 
L 328.444581 219.609084 
L 328.753556 219.790756 
L 329.213334 220.005296 
L 329.819629 220.210421 
L 330.566928 220.554015 
L 333.024421 221.403832 
L 333.58489 221.819285 
L 334.41356 222.096011 
L 335.763783 222.215934 
L 335.763783 222.215934 
" style="fill:none;stroke:#ff0000;stroke-linecap:round;"/>
   </g>
   <g id="line2d_30">
    <path clip-path="url(#pa8fe5d7af0)" d="M 51.787742 23.428981 
L 85.197293 30.632121 
L 104.740628 53.415884 
L 118.606845 58.763802 
L 129.362318 63.14413 
L 138.15018 78.363499 
L 145.580211 79.662978 
L 152.016397 80.999763 
L 157.693515 81.348577 
L 162.77187 81.681868 
L 167.365801 83.926264 
L 171.559732 84.475272 
L 175.417774 84.688868 
L 178.989763 85.102074 
L 182.315205 87.706232 
L 185.425949 88.061366 
L 188.348043 91.332125 
L 191.103067 93.612217 
L 193.709096 95.827151 
L 196.181422 100.09349 
L 198.533098 103.201046 
L 200.775353 105.737456 
L 202.917919 108.265822 
L 204.969284 108.88155 
L 206.936895 109.624932 
L 208.827326 110.659778 
L 210.646402 111.587236 
L 212.399315 114.79658 
L 214.090709 119.083993 
L 215.724757 127.959279 
L 217.30522 130.933459 
L 218.8355 134.071756 
L 220.318688 136.103977 
L 221.757595 139.896935 
L 223.154788 141.566933 
L 224.512619 143.315041 
L 225.833244 145.685745 
L 227.118648 146.215072 
L 228.370661 149.37323 
L 229.590974 158.781173 
L 230.781153 172.792648 
L 231.94265 177.317653 
L 233.076815 182.451966 
L 234.184905 187.426489 
L 235.268092 192.562564 
L 236.327471 196.779562 
L 237.364065 200.867433 
L 238.378835 202.356916 
L 239.372681 203.476308 
L 240.346447 203.638397 
L 241.30093 204.319511 
L 242.236878 204.426665 
L 243.154997 204.451314 
L 244.055954 204.45663 
L 244.940378 204.627157 
L 245.808867 204.639877 
L 246.661983 204.698513 
L 247.500261 204.740771 
L 248.324209 204.795151 
L 249.134309 204.851914 
L 249.931018 204.892277 
L 250.714772 204.922982 
L 251.485985 204.929109 
L 252.245052 204.940904 
L 252.992351 204.947199 
L 253.72824 204.948557 
L 254.453063 204.949829 
L 255.167147 204.950663 
L 255.870806 204.95068 
L 256.56434 204.950804 
L 257.248036 204.950801 
" style="fill:none;stroke:#ff0000;stroke-linecap:round;"/>
   </g>
   <g id="line2d_31">
    <path clip-path="url(#pa8fe5d7af0)" d="M 51.787742 62.17124 
L 85.197293 62.17124 
L 118.606845 67.78956 
L 129.362318 68.855175 
L 138.15018 69.011921 
L 152.016397 68.538711 
L 157.693515 68.563046 
L 162.77187 68.898757 
L 167.365801 69.513267 
L 171.559732 70.331909 
L 178.989763 72.213441 
L 185.425949 73.843682 
L 188.348043 74.424024 
L 193.709096 75.125951 
L 200.775353 75.803389 
L 204.969284 76.570938 
L 208.827326 77.664747 
L 215.724757 79.895395 
L 218.8355 80.660165 
L 228.370661 82.581701 
L 237.364065 84.994908 
L 259.889782 89.373474 
L 269.737023 90.873327 
L 280.492496 92.254428 
L 291.996557 93.487574 
L 320.364422 96.415472 
L 330.418392 97.761178 
L 340.454452 99.332118 
L 346.890638 100.454307 
L 346.996223 99.526048 
L 347.101578 89.082736 
L 347.206703 100.375487 
L 347.311599 88.845762 
L 347.52071 100.548472 
L 347.728916 91.951218 
L 347.936228 100.603495 
L 348.142651 94.38992 
L 348.348194 100.27221 
L 348.450638 99.864253 
L 348.654875 96.726766 
L 348.85825 100.705877 
L 349.161712 98.316669 
L 349.362964 100.804912 
L 349.663275 99.298068 
L 349.862448 100.870157 
L 349.961727 100.69826 
L 350.159673 99.961983 
L 350.455076 100.942087 
L 350.651011 100.439134 
L 350.943427 101.090794 
L 351.13739 100.785725 
L 351.330576 101.077698 
L 351.426879 101.1925 
L 351.71464 101.054376 
L 352.000693 101.275714 
L 352.190456 101.217194 
L 352.567756 101.363513 
L 352.848805 101.453258 
L 353.865521 101.664076 
L 356.87899 102.265352 
L 371.765346 105.445217 
L 385.076351 108.543142 
L 398.630438 111.925196 
L 411.215157 115.289546 
L 418.173773 117.261231 
L 418.173773 117.261231 
" style="fill:none;stroke:#0000ff;stroke-linecap:round;"/>
   </g>
   <g id="line2d_32">
    <path clip-path="url(#pa8fe5d7af0)" d="M 51.787742 25.72666 
L 85.197293 25.72666 
L 104.740628 27.94408 
L 118.606845 30.266851 
L 129.362318 32.654537 
L 138.15018 35.145531 
L 145.580211 37.632765 
L 152.016397 40.120579 
L 157.693515 42.600026 
L 167.365801 47.334691 
L 182.315205 54.991998 
L 188.348043 57.729432 
L 191.103067 58.801148 
L 193.709096 59.679279 
L 196.181422 60.378101 
L 200.775353 61.326034 
L 204.969284 61.835631 
L 208.827326 62.063669 
L 214.090709 62.083911 
L 221.757595 61.76744 
L 230.781153 61.471816 
L 237.364065 61.49739 
L 244.055954 61.766017 
L 257.248036 62.625105 
L 268.139093 63.19816 
L 290.995834 64.293976 
L 301.004009 65.042428 
L 309.9741 65.93248 
L 318.113439 66.963481 
L 325.735119 68.153482 
L 332.88328 69.490236 
L 339.354789 70.919832 
L 345.059364 72.402437 
L 350.060802 73.925262 
L 354.591709 75.530589 
L 358.898124 77.292784 
L 363.078321 79.247358 
L 367.341454 81.492677 
L 371.891359 84.145665 
L 377.358272 87.604564 
L 386.211629 93.517175 
L 397.423094 100.936251 
L 405.645756 106.098562 
L 414.573983 111.433133 
L 418.173773 113.526444 
L 418.173773 113.526444 
" style="fill:none;stroke:#0000ff;stroke-linecap:round;"/>
   </g>
   <g id="line2d_33">
    <path clip-path="url(#pa8fe5d7af0)" d="M 51.787742 54.375576 
L 85.197293 54.375576 
L 104.740628 56.683553 
L 118.606845 58.845452 
L 129.362318 60.805201 
L 152.016397 65.252458 
L 157.693515 66.231504 
L 162.77187 66.958278 
L 167.365801 67.447217 
L 171.559732 67.725512 
L 175.417774 67.831181 
L 182.315205 67.706671 
L 193.709096 67.301116 
L 198.533098 67.449725 
L 202.917919 67.892544 
L 206.936895 68.546258 
L 224.512619 71.8865 
L 229.590974 72.804458 
L 234.184905 73.849548 
L 245.808867 76.702237 
L 253.72824 78.566292 
L 260.528199 80.111267 
L 270.773617 82.209843 
L 280.492496 83.942508 
L 291.331722 85.633786 
L 318.495979 89.682868 
L 318.686116 89.366011 
L 318.875507 88.354054 
L 319.064156 89.714161 
L 319.25207 88.999691 
L 319.439253 89.213996 
L 319.625713 89.868146 
L 319.811454 89.28611 
L 319.996483 89.480572 
L 320.180803 89.966032 
L 320.364422 89.626279 
L 320.547343 89.617183 
L 320.729574 90.03488 
L 321.09198 89.775423 
L 321.451681 90.156439 
L 321.630531 89.984842 
L 322.16313 90.205835 
L 322.339364 90.17461 
L 322.689909 90.38257 
L 322.864231 90.316761 
L 323.383443 90.473864 
L 323.726504 90.569272 
L 326.224462 91.036026 
L 327.663368 91.298759 
L 332.88328 92.273914 
L 340.212242 93.751142 
L 343.155757 94.616359 
L 346.784821 95.87852 
L 353.590355 98.509154 
L 371.575707 105.56063 
L 377.972291 107.754866 
L 384.304366 109.687221 
L 391.392726 111.609416 
L 403.993393 114.741643 
L 414.287621 117.422905 
L 418.173773 118.516509 
L 418.173773 118.516509 
" style="fill:none;stroke:#0000ff;stroke-linecap:round;"/>
   </g>
   <g id="line2d_34">
    <path clip-path="url(#pa8fe5d7af0)" d="M 51.787742 63.574304 
L 85.197293 63.574304 
L 104.740628 65.177256 
L 118.606845 66.102047 
L 129.362318 66.43625 
L 145.580211 66.639328 
L 152.016397 66.962804 
L 157.693515 67.470782 
L 167.365801 68.760964 
L 175.417774 69.923907 
L 182.315205 70.680868 
L 188.348043 71.267919 
L 193.709096 72.050351 
L 198.533098 73.057653 
L 204.969284 74.451715 
L 217.30522 76.753846 
L 223.154788 78.101109 
L 231.94265 79.867378 
L 236.327471 80.812372 
L 260.528199 85.231196 
L 273.271575 87.132677 
L 284.895536 88.622576 
L 302.619795 90.630287 
L 317.533875 92.411458 
L 327.977375 93.885591 
L 338.229451 95.560606 
L 349.463276 97.628273 
L 352.755304 98.273068 
L 352.848805 97.103021 
L 352.942125 90.538042 
L 353.035265 98.303785 
L 353.128225 91.308191 
L 353.313609 98.339673 
L 353.498283 93.871052 
L 353.682252 97.718057 
L 353.773974 95.00587 
L 353.865521 95.716813 
L 353.956895 98.185452 
L 354.048096 97.913298 
L 354.139125 96.168749 
L 354.229983 96.559092 
L 354.411185 98.335868 
L 354.591709 97.091343 
L 354.771559 98.614389 
L 354.950741 97.578833 
L 355.129259 98.702133 
L 355.307118 98.052269 
L 355.395802 98.229275 
L 355.572682 98.748209 
L 355.748916 98.399199 
L 355.924507 98.87095 
L 356.099461 98.61369 
L 356.360707 98.925786 
L 356.534088 98.823541 
L 356.706847 99.027932 
L 356.964831 99.01054 
L 357.136056 99.098226 
L 357.306675 99.086349 
L 357.561476 99.172461 
L 358.067073 99.283736 
L 358.65031 99.422102 
L 359.957503 99.699607 
L 370.486762 102.010132 
L 373.439333 102.848329 
L 375.350852 103.614902 
L 377.076566 104.545252 
L 378.960476 105.827902 
L 381.345779 107.748704 
L 387.412069 112.755298 
L 389.900353 114.448659 
L 392.348855 115.846863 
L 394.913705 117.055554 
L 397.79216 118.16086 
L 401.198419 119.2235 
L 405.863925 120.429164 
L 418.173773 123.326203 
L 418.173773 123.326203 
" style="fill:none;stroke:#0000ff;stroke-linecap:round;"/>
   </g>
   <g id="line2d_35">
    <path clip-path="url(#pa8fe5d7af0)" d="M 51.787742 42.180274 
L 85.197293 42.180274 
L 104.740628 44.818751 
L 118.606845 47.536215 
L 129.362318 50.279307 
L 138.15018 52.982001 
L 145.580211 55.570362 
L 162.77187 61.940595 
L 167.365801 63.428477 
L 171.559732 64.568133 
L 175.417774 65.377974 
L 178.989763 65.895564 
L 182.315205 66.170095 
L 185.425949 66.254799 
L 191.103067 66.054235 
L 198.533098 65.401507 
L 204.969284 64.871882 
L 208.827326 64.720613 
L 212.399315 64.752072 
L 215.724757 64.916029 
L 221.757595 65.740937 
L 224.512619 66.228044 
L 234.184905 68.240004 
L 238.378835 68.946089 
L 242.236878 69.429593 
L 247.500261 69.900823 
L 257.248036 70.736195 
L 265.92262 71.740098 
L 277.909746 73.32604 
L 289.628372 75.142606 
L 311.978075 78.661667 
L 323.555279 80.198464 
L 354.411185 83.93676 
L 372.516527 86.237851 
L 384.304366 87.963642 
L 394.796478 89.723516 
L 404.603728 91.592393 
L 413.178316 93.445092 
L 418.173773 94.68683 
L 418.173773 94.68683 
" style="fill:none;stroke:#0000ff;stroke-linecap:round;"/>
   </g>
   <g id="line2d_36">
    <path clip-path="url(#pa8fe5d7af0)" d="M 51.787742 10.026005 
L 85.197293 10.026005 
L 104.740628 11.182971 
L 118.606845 12.374347 
L 129.362318 13.598645 
L 138.15018 14.854037 
L 145.580211 16.134323 
L 152.016397 17.449129 
L 157.693515 18.780358 
L 162.77187 20.134296 
L 167.365801 21.509536 
L 171.559732 22.89759 
L 178.989763 25.69372 
L 185.425949 28.508253 
L 191.103067 31.305556 
L 196.181422 34.051949 
L 202.917919 38.040737 
L 210.646402 42.995181 
L 220.318688 49.523825 
L 229.590974 55.995995 
L 235.268092 60.243647 
L 239.372681 63.601898 
L 243.154997 66.97921 
L 247.500261 71.187857 
L 256.56434 80.154494 
L 259.242795 82.474312 
L 261.780212 84.411879 
L 264.190704 85.997105 
L 266.486367 87.278863 
L 269.210244 88.536263 
L 272.287871 89.664719 
L 275.646429 90.617941 
L 279.218418 91.395998 
L 283.734039 92.134998 
L 288.929812 92.751778 
L 295.189764 93.264112 
L 302.883905 93.655498 
L 313.692026 93.956871 
L 350.553143 94.849221 
L 367.617276 95.519697 
L 380.353011 96.232084 
L 390.673628 97.025395 
L 399.525373 97.92308 
L 407.424322 98.943198 
L 414.573983 100.087172 
L 418.173773 100.756842 
L 418.173773 100.756842 
" style="fill:none;stroke:#0000ff;stroke-linecap:round;"/>
   </g>
   <g id="line2d_37">
    <path clip-path="url(#pa8fe5d7af0)" d="M 51.787742 55.241377 
L 85.197293 55.241377 
L 104.740628 57.719938 
L 118.606845 60.119892 
L 145.580211 65.48892 
L 152.016397 66.332789 
L 157.693515 66.697202 
L 162.77187 66.685167 
L 167.365801 66.435679 
L 178.989763 65.524365 
L 182.315205 65.428466 
L 185.425949 65.483471 
L 188.348043 65.680654 
L 193.709096 66.402568 
L 200.775353 67.809416 
L 204.969284 68.616719 
L 208.827326 69.171718 
L 212.399315 69.483247 
L 225.833244 70.306244 
L 231.94265 71.196615 
L 237.364065 71.931495 
L 250.714772 73.514286 
L 299.332172 80.364402 
L 313.692026 82.583189 
L 324.573622 84.51505 
L 339.724138 87.443551 
L 354.591709 90.547658 
L 372.640593 94.552242 
L 380.82582 96.439161 
L 380.878069 95.492394 
L 380.930261 86.87461 
L 380.982397 96.397933 
L 381.034477 87.08224 
L 381.138468 96.49413 
L 381.19038 91.937263 
L 381.242235 89.836648 
L 381.345779 96.399744 
L 381.449102 91.768362 
L 381.552203 96.565045 
L 381.603671 95.071126 
L 381.655084 93.329 
L 381.706442 94.254485 
L 381.808995 96.38645 
L 381.91133 94.553551 
L 382.013448 96.624703 
L 382.064426 96.321041 
L 382.166221 95.477736 
L 382.267801 96.72898 
L 382.318511 96.422758 
L 382.369168 95.963023 
L 382.419772 96.057502 
L 382.520819 96.787988 
L 382.571264 96.56627 
L 382.621656 96.31479 
L 382.671995 96.415622 
L 382.772516 96.84306 
L 382.822698 96.698988 
L 382.872828 96.563634 
L 382.922905 96.646075 
L 383.022905 96.899518 
L 383.072827 96.811254 
L 383.122698 96.741446 
L 383.172517 96.804378 
L 383.272 96.957954 
L 383.321665 96.906558 
L 383.420842 96.920778 
L 383.569225 96.989074 
L 383.717153 97.060688 
L 385.50522 97.49097 
L 400.95802 101.408527 
L 402.148199 101.981751 
L 402.980686 102.626484 
L 403.734079 103.496821 
L 404.603728 104.878446 
L 407.092012 109.094457 
L 408.022713 110.103684 
L 409.023233 110.860478 
L 410.231167 111.48332 
L 411.905908 112.077111 
L 415.269742 112.980302 
L 418.173773 113.725105 
L 418.173773 113.725105 
" style="fill:none;stroke:#0000ff;stroke-linecap:round;"/>
   </g>
   <g id="line2d_38">
    <path clip-path="url(#pa8fe5d7af0)" d="M 51.787742 20.710028 
L 85.197293 20.710028 
L 104.740628 21.958402 
L 118.606845 23.277776 
L 129.362318 24.668201 
L 138.15018 26.129015 
L 145.580211 27.654736 
L 152.016397 29.254767 
L 157.693515 30.910246 
L 162.77187 32.626408 
L 167.365801 34.399517 
L 171.559732 36.216878 
L 175.417774 38.067985 
L 178.989763 39.947398 
L 182.315205 41.847973 
L 188.348043 45.657947 
L 193.709096 49.388773 
L 200.775353 54.651119 
L 206.936895 59.238651 
L 210.646402 61.824784 
L 214.090709 64.02053 
L 217.30522 65.830888 
L 220.318688 67.278354 
L 223.154788 68.40993 
L 225.833244 69.284966 
L 229.590974 70.23013 
L 233.076815 70.850307 
L 237.364065 71.356667 
L 243.154997 71.769018 
L 252.245052 72.12923 
L 274.235603 72.944452 
L 288.576698 73.722001 
L 302.087196 74.680456 
L 315.347118 75.845111 
L 329.819629 77.345715 
L 354.591709 80.194746 
L 370.616157 81.90721 
L 383.81552 83.088994 
L 410.598998 85.383579 
L 417.640906 86.410238 
L 418.173773 86.49766 
L 418.173773 86.49766 
" style="fill:none;stroke:#0000ff;stroke-linecap:round;"/>
   </g>
   <g id="line2d_39">
    <path clip-path="url(#pa8fe5d7af0)" d="M 51.787742 55.328951 
L 85.197293 55.328951 
L 104.740628 58.582749 
L 118.606845 61.198051 
L 129.362318 62.86728 
L 138.15018 63.542793 
L 145.580211 63.46496 
L 162.77187 62.326912 
L 167.365801 62.386284 
L 171.559732 62.731043 
L 175.417774 63.296777 
L 182.315205 64.675474 
L 185.425949 65.475259 
L 193.709096 66.986178 
L 198.533098 67.35748 
L 204.969284 67.800068 
L 208.827326 68.266116 
L 212.399315 69.063927 
L 217.30522 70.417542 
L 221.757595 71.627978 
L 234.184905 74.494967 
L 243.154997 77.07351 
L 249.134309 78.69356 
L 257.92217 81.185281 
L 274.235603 85.541698 
L 284.895536 88.121763 
L 293.937751 90.089756 
L 302.354231 91.698661 
L 310.651392 93.055279 
L 319.625713 94.286188 
L 332.457358 95.787307 
L 347.624925 97.614411 
L 357.983174 99.096922 
L 367.959849 100.750848 
L 377.189446 102.497829 
L 380.088322 103.224179 
L 382.267801 104.021955 
L 385.076351 105.283614 
L 388.136211 106.907898 
L 391.643985 109.031627 
L 397.311821 112.773778 
L 402.848451 116.328391 
L 406.757396 118.568184 
L 410.344645 120.367999 
L 413.920682 121.913463 
L 417.665255 123.288479 
L 418.173773 123.458261 
L 418.173773 123.458261 
" style="fill:none;stroke:#0000ff;stroke-linecap:round;"/>
   </g>
   <g id="line2d_40">
    <path clip-path="url(#pa8fe5d7af0)" d="M 51.787742 23.428981 
L 85.197293 23.428981 
L 104.740628 24.817928 
L 118.606845 26.212428 
L 129.362318 27.602387 
L 138.15018 28.974025 
L 145.580211 30.333328 
L 152.016397 31.657738 
L 162.77187 34.21969 
L 171.559732 36.64796 
L 178.989763 38.936806 
L 188.348043 42.13012 
L 198.533098 45.915702 
L 221.757595 54.776999 
L 228.370661 56.963262 
L 234.184905 58.650982 
L 239.372681 59.92881 
L 244.055954 60.869641 
L 249.134309 61.667548 
L 254.453063 62.280505 
L 261.158271 62.807019 
L 270.258106 63.266309 
L 296.710389 64.469159 
L 308.120033 65.274195 
L 318.875507 66.255203 
L 329.668769 67.467472 
L 341.292731 69.003602 
L 356.447476 71.248474 
L 379.875519 74.956783 
L 395.224924 77.590377 
L 400.019372 78.643739 
L 403.473363 79.641696 
L 407.454418 81.042428 
L 415.192929 83.802336 
L 418.173773 84.68472 
L 418.173773 84.68472 
" style="fill:none;stroke:#0000ff;stroke-linecap:round;"/>
   </g>
  </g>
 </g>
 <defs>
  <clipPath id="pa8fe5d7af0">
   <rect height="254.094709" width="388.369194" x="40.796161" y="2.834646"/>
  </clipPath>
 </defs>
</svg>
