<svg xmlns="http://www.w3.org/2000/svg" xmlns:xlink="http://www.w3.org/1999/xlink" width="600" height="400" viewBox="0 0 2400 1600">
<defs>
  <clipPath id="clip320">
    <rect x="0" y="0" width="2400" height="1600"></rect>
  </clipPath>
</defs>
<path clip-path="url(#clip320)" d="M0 1600 L2400 1600 L2400 0 L0 0  Z" fill="#ffffff" fill-rule="evenodd" fill-opacity="1"></path>
<defs>
  <clipPath id="clip321">
    <rect x="480" y="0" width="1681" height="1600"></rect>
  </clipPath>
</defs>
<path clip-path="url(#clip320)" d="M175.445 1486.45 L2352.76 1486.45 L2352.76 47.2441 L175.445 47.2441  Z" fill="#ffffff" fill-rule="evenodd" fill-opacity="1"></path>
<defs>
  <clipPath id="clip322">
    <rect x="175" y="47" width="2178" height="1440"></rect>
  </clipPath>
</defs>
<polyline clip-path="url(#clip322)" style="stroke:#000000; stroke-linecap:round; stroke-linejoin:round; stroke-width:2; stroke-opacity:0.1; fill:none" points="465.297,1486.45 465.297,47.2441 "></polyline>
<polyline clip-path="url(#clip322)" style="stroke:#000000; stroke-linecap:round; stroke-linejoin:round; stroke-width:2; stroke-opacity:0.1; fill:none" points="1264.1,1486.45 1264.1,47.2441 "></polyline>
<polyline clip-path="url(#clip322)" style="stroke:#000000; stroke-linecap:round; stroke-linejoin:round; stroke-width:2; stroke-opacity:0.1; fill:none" points="2062.9,1486.45 2062.9,47.2441 "></polyline>
<polyline clip-path="url(#clip320)" style="stroke:#000000; stroke-linecap:round; stroke-linejoin:round; stroke-width:4; stroke-opacity:1; fill:none" points="175.445,1486.45 2352.76,1486.45 "></polyline>
<polyline clip-path="url(#clip320)" style="stroke:#000000; stroke-linecap:round; stroke-linejoin:round; stroke-width:4; stroke-opacity:1; fill:none" points="465.297,1486.45 465.297,1467.55 "></polyline>
<polyline clip-path="url(#clip320)" style="stroke:#000000; stroke-linecap:round; stroke-linejoin:round; stroke-width:4; stroke-opacity:1; fill:none" points="1264.1,1486.45 1264.1,1467.55 "></polyline>
<polyline clip-path="url(#clip320)" style="stroke:#000000; stroke-linecap:round; stroke-linejoin:round; stroke-width:4; stroke-opacity:1; fill:none" points="2062.9,1486.45 2062.9,1467.55 "></polyline>
<path clip-path="url(#clip320)" d="M392.427 1514.29 L397.103 1514.29 L397.103 1544.91 L413.931 1544.91 L413.931 1548.85 L392.427 1548.85 L392.427 1514.29 Z" fill="#000000" fill-rule="nonzero" fill-opacity="1"></path><path clip-path="url(#clip320)" d="M423.515 1532.34 L423.515 1545.01 L431.015 1545.01 Q434.788 1545.01 436.593 1543.45 Q438.422 1541.88 438.422 1538.66 Q438.422 1535.42 436.593 1533.89 Q434.788 1532.34 431.015 1532.34 L423.515 1532.34 M423.515 1518.13 L423.515 1528.55 L430.436 1528.55 Q433.862 1528.55 435.528 1527.27 Q437.218 1525.98 437.218 1523.34 Q437.218 1520.72 435.528 1519.43 Q433.862 1518.13 430.436 1518.13 L423.515 1518.13 M418.839 1514.29 L430.783 1514.29 Q436.13 1514.29 439.024 1516.51 Q441.917 1518.73 441.917 1522.83 Q441.917 1526 440.436 1527.88 Q438.954 1529.75 436.084 1530.21 Q439.533 1530.95 441.431 1533.32 Q443.353 1535.65 443.353 1539.17 Q443.353 1543.8 440.204 1546.32 Q437.056 1548.85 431.246 1548.85 L418.839 1548.85 L418.839 1514.29 Z" fill="#000000" fill-rule="nonzero" fill-opacity="1"></path><path clip-path="url(#clip320)" d="M451.362 1514.29 L471.223 1514.29 L471.223 1518.22 L456.038 1518.22 L456.038 1528.41 L469.741 1528.41 L469.741 1532.34 L456.038 1532.34 L456.038 1548.85 L451.362 1548.85 L451.362 1514.29 Z" fill="#000000" fill-rule="nonzero" fill-opacity="1"></path><path clip-path="url(#clip320)" d="M502.195 1543.92 L502.195 1534.63 L494.556 1534.63 L494.556 1530.79 L506.824 1530.79 L506.824 1545.63 Q504.116 1547.55 500.852 1548.55 Q497.588 1549.52 493.885 1549.52 Q485.783 1549.52 481.2 1544.8 Q476.639 1540.05 476.639 1531.6 Q476.639 1523.13 481.2 1518.41 Q485.783 1513.66 493.885 1513.66 Q497.264 1513.66 500.297 1514.5 Q503.352 1515.33 505.922 1516.95 L505.922 1521.93 Q503.329 1519.73 500.412 1518.62 Q497.496 1517.51 494.278 1517.51 Q487.936 1517.51 484.741 1521.05 Q481.57 1524.59 481.57 1531.6 Q481.57 1538.59 484.741 1542.13 Q487.936 1545.68 494.278 1545.68 Q496.755 1545.68 498.699 1545.26 Q500.644 1544.82 502.195 1543.92 Z" fill="#000000" fill-rule="nonzero" fill-opacity="1"></path><path clip-path="url(#clip320)" d="M536.083 1515.42 L536.083 1519.98 Q533.421 1518.71 531.06 1518.08 Q528.699 1517.46 526.5 1517.46 Q522.681 1517.46 520.597 1518.94 Q518.537 1520.42 518.537 1523.15 Q518.537 1525.45 519.903 1526.63 Q521.292 1527.78 525.134 1528.5 L527.959 1529.08 Q533.19 1530.07 535.667 1532.6 Q538.167 1535.1 538.167 1539.31 Q538.167 1544.33 534.787 1546.93 Q531.431 1549.52 524.926 1549.52 Q522.472 1549.52 519.695 1548.96 Q516.94 1548.41 513.977 1547.32 L513.977 1542.51 Q516.824 1544.1 519.556 1544.91 Q522.287 1545.72 524.926 1545.72 Q528.931 1545.72 531.107 1544.15 Q533.283 1542.57 533.283 1539.66 Q533.283 1537.11 531.709 1535.68 Q530.158 1534.24 526.593 1533.52 L523.746 1532.97 Q518.514 1531.93 516.176 1529.7 Q513.838 1527.48 513.838 1523.52 Q513.838 1518.94 517.056 1516.3 Q520.297 1513.66 525.968 1513.66 Q528.398 1513.66 530.921 1514.1 Q533.445 1514.54 536.083 1515.42 Z" fill="#000000" fill-rule="nonzero" fill-opacity="1"></path><path clip-path="url(#clip320)" d="M1197.67 1515.42 L1197.67 1519.98 Q1195 1518.71 1192.64 1518.08 Q1190.28 1517.46 1188.08 1517.46 Q1184.26 1517.46 1182.18 1518.94 Q1180.12 1520.42 1180.12 1523.15 Q1180.12 1525.45 1181.49 1526.63 Q1182.87 1527.78 1186.72 1528.5 L1189.54 1529.08 Q1194.77 1530.07 1197.25 1532.6 Q1199.75 1535.1 1199.75 1539.31 Q1199.75 1544.33 1196.37 1546.93 Q1193.01 1549.52 1186.51 1549.52 Q1184.05 1549.52 1181.28 1548.96 Q1178.52 1548.41 1175.56 1547.32 L1175.56 1542.51 Q1178.41 1544.1 1181.14 1544.91 Q1183.87 1545.72 1186.51 1545.72 Q1190.51 1545.72 1192.69 1544.15 Q1194.86 1542.57 1194.86 1539.66 Q1194.86 1537.11 1193.29 1535.68 Q1191.74 1534.24 1188.18 1533.52 L1185.33 1532.97 Q1180.1 1531.93 1177.76 1529.7 Q1175.42 1527.48 1175.42 1523.52 Q1175.42 1518.94 1178.64 1516.3 Q1181.88 1513.66 1187.55 1513.66 Q1189.98 1513.66 1192.5 1514.1 Q1195.03 1514.54 1197.67 1515.42 Z" fill="#000000" fill-rule="nonzero" fill-opacity="1"></path><path clip-path="url(#clip320)" d="M1207.04 1514.29 L1211.72 1514.29 L1211.72 1544.91 L1228.55 1544.91 L1228.55 1548.85 L1207.04 1548.85 L1207.04 1514.29 Z" fill="#000000" fill-rule="nonzero" fill-opacity="1"></path><path clip-path="url(#clip320)" d="M1238.13 1532.34 L1238.13 1545.01 L1245.63 1545.01 Q1249.4 1545.01 1251.21 1543.45 Q1253.04 1541.88 1253.04 1538.66 Q1253.04 1535.42 1251.21 1533.89 Q1249.4 1532.34 1245.63 1532.34 L1238.13 1532.34 M1238.13 1518.13 L1238.13 1528.55 L1245.05 1528.55 Q1248.48 1528.55 1250.14 1527.27 Q1251.83 1525.98 1251.83 1523.34 Q1251.83 1520.72 1250.14 1519.43 Q1248.48 1518.13 1245.05 1518.13 L1238.13 1518.13 M1233.45 1514.29 L1245.4 1514.29 Q1250.74 1514.29 1253.64 1516.51 Q1256.53 1518.73 1256.53 1522.83 Q1256.53 1526 1255.05 1527.88 Q1253.57 1529.75 1250.7 1530.21 Q1254.15 1530.95 1256.05 1533.32 Q1257.97 1535.65 1257.97 1539.17 Q1257.97 1543.8 1254.82 1546.32 Q1251.67 1548.85 1245.86 1548.85 L1233.45 1548.85 L1233.45 1514.29 Z" fill="#000000" fill-rule="nonzero" fill-opacity="1"></path><path clip-path="url(#clip320)" d="M1265.98 1514.29 L1285.84 1514.29 L1285.84 1518.22 L1270.65 1518.22 L1270.65 1528.41 L1284.36 1528.41 L1284.36 1532.34 L1270.65 1532.34 L1270.65 1548.85 L1265.98 1548.85 L1265.98 1514.29 Z" fill="#000000" fill-rule="nonzero" fill-opacity="1"></path><path clip-path="url(#clip320)" d="M1316.81 1543.92 L1316.81 1534.63 L1309.17 1534.63 L1309.17 1530.79 L1321.44 1530.79 L1321.44 1545.63 Q1318.73 1547.55 1315.47 1548.55 Q1312.2 1549.52 1308.5 1549.52 Q1300.4 1549.52 1295.81 1544.8 Q1291.25 1540.05 1291.25 1531.6 Q1291.25 1523.13 1295.81 1518.41 Q1300.4 1513.66 1308.5 1513.66 Q1311.88 1513.66 1314.91 1514.5 Q1317.97 1515.33 1320.54 1516.95 L1320.54 1521.93 Q1317.94 1519.73 1315.03 1518.62 Q1312.11 1517.51 1308.89 1517.51 Q1302.55 1517.51 1299.35 1521.05 Q1296.18 1524.59 1296.18 1531.6 Q1296.18 1538.59 1299.35 1542.13 Q1302.55 1545.68 1308.89 1545.68 Q1311.37 1545.68 1313.31 1545.26 Q1315.26 1544.82 1316.81 1543.92 Z" fill="#000000" fill-rule="nonzero" fill-opacity="1"></path><path clip-path="url(#clip320)" d="M1350.7 1515.42 L1350.7 1519.98 Q1348.04 1518.71 1345.67 1518.08 Q1343.31 1517.46 1341.11 1517.46 Q1337.29 1517.46 1335.21 1518.94 Q1333.15 1520.42 1333.15 1523.15 Q1333.15 1525.45 1334.52 1526.63 Q1335.91 1527.78 1339.75 1528.5 L1342.57 1529.08 Q1347.8 1530.07 1350.28 1532.6 Q1352.78 1535.1 1352.78 1539.31 Q1352.78 1544.33 1349.4 1546.93 Q1346.04 1549.52 1339.54 1549.52 Q1337.09 1549.52 1334.31 1548.96 Q1331.55 1548.41 1328.59 1547.32 L1328.59 1542.51 Q1331.44 1544.1 1334.17 1544.91 Q1336.9 1545.72 1339.54 1545.72 Q1343.54 1545.72 1345.72 1544.15 Q1347.9 1542.57 1347.9 1539.66 Q1347.9 1537.11 1346.32 1535.68 Q1344.77 1534.24 1341.21 1533.52 L1338.36 1532.97 Q1333.13 1531.93 1330.79 1529.7 Q1328.45 1527.48 1328.45 1523.52 Q1328.45 1518.94 1331.67 1516.3 Q1334.91 1513.66 1340.58 1513.66 Q1343.01 1513.66 1345.54 1514.1 Q1348.06 1514.54 1350.7 1515.42 Z" fill="#000000" fill-rule="nonzero" fill-opacity="1"></path><path clip-path="url(#clip320)" d="M2010.52 1518.89 L2004.18 1536.09 L2016.89 1536.09 L2010.52 1518.89 M2007.88 1514.29 L2013.18 1514.29 L2026.35 1548.85 L2021.49 1548.85 L2018.34 1539.98 L2002.77 1539.98 L1999.62 1548.85 L1994.69 1548.85 L2007.88 1514.29 Z" fill="#000000" fill-rule="nonzero" fill-opacity="1"></path><path clip-path="url(#clip320)" d="M2036.08 1518.13 L2036.08 1545.01 L2041.72 1545.01 Q2048.88 1545.01 2052.19 1541.76 Q2055.52 1538.52 2055.52 1531.53 Q2055.52 1524.59 2052.19 1521.37 Q2048.88 1518.13 2041.72 1518.13 L2036.08 1518.13 M2031.4 1514.29 L2041.01 1514.29 Q2051.05 1514.29 2055.75 1518.48 Q2060.45 1522.64 2060.45 1531.53 Q2060.45 1540.47 2055.73 1544.66 Q2051.01 1548.85 2041.01 1548.85 L2031.4 1548.85 L2031.4 1514.29 Z" fill="#000000" fill-rule="nonzero" fill-opacity="1"></path><path clip-path="url(#clip320)" d="M2078.62 1518.89 L2072.28 1536.09 L2084.99 1536.09 L2078.62 1518.89 M2075.98 1514.29 L2081.28 1514.29 L2094.46 1548.85 L2089.59 1548.85 L2086.45 1539.98 L2070.87 1539.98 L2067.72 1548.85 L2062.79 1548.85 L2075.98 1514.29 Z" fill="#000000" fill-rule="nonzero" fill-opacity="1"></path><path clip-path="url(#clip320)" d="M2099.5 1514.29 L2106.47 1514.29 L2115.29 1537.81 L2124.15 1514.29 L2131.12 1514.29 L2131.12 1548.85 L2126.56 1548.85 L2126.56 1518.5 L2117.65 1542.2 L2112.95 1542.2 L2104.04 1518.5 L2104.04 1548.85 L2099.5 1548.85 L2099.5 1514.29 Z" fill="#000000" fill-rule="nonzero" fill-opacity="1"></path><polyline clip-path="url(#clip322)" style="stroke:#000000; stroke-linecap:round; stroke-linejoin:round; stroke-width:2; stroke-opacity:0.1; fill:none" points="175.445,1313.28 2352.76,1313.28 "></polyline>
<polyline clip-path="url(#clip322)" style="stroke:#000000; stroke-linecap:round; stroke-linejoin:round; stroke-width:2; stroke-opacity:0.1; fill:none" points="175.445,934.352 2352.76,934.352 "></polyline>
<polyline clip-path="url(#clip322)" style="stroke:#000000; stroke-linecap:round; stroke-linejoin:round; stroke-width:2; stroke-opacity:0.1; fill:none" points="175.445,555.425 2352.76,555.425 "></polyline>
<polyline clip-path="url(#clip322)" style="stroke:#000000; stroke-linecap:round; stroke-linejoin:round; stroke-width:2; stroke-opacity:0.1; fill:none" points="175.445,176.499 2352.76,176.499 "></polyline>
<polyline clip-path="url(#clip320)" style="stroke:#000000; stroke-linecap:round; stroke-linejoin:round; stroke-width:4; stroke-opacity:1; fill:none" points="175.445,1486.45 175.445,47.2441 "></polyline>
<polyline clip-path="url(#clip320)" style="stroke:#000000; stroke-linecap:round; stroke-linejoin:round; stroke-width:4; stroke-opacity:1; fill:none" points="175.445,1313.28 194.343,1313.28 "></polyline>
<polyline clip-path="url(#clip320)" style="stroke:#000000; stroke-linecap:round; stroke-linejoin:round; stroke-width:4; stroke-opacity:1; fill:none" points="175.445,934.352 194.343,934.352 "></polyline>
<polyline clip-path="url(#clip320)" style="stroke:#000000; stroke-linecap:round; stroke-linejoin:round; stroke-width:4; stroke-opacity:1; fill:none" points="175.445,555.425 194.343,555.425 "></polyline>
<polyline clip-path="url(#clip320)" style="stroke:#000000; stroke-linecap:round; stroke-linejoin:round; stroke-width:4; stroke-opacity:1; fill:none" points="175.445,176.499 194.343,176.499 "></polyline>
<path clip-path="url(#clip320)" d="M119.538 1326.62 L127.177 1326.62 L127.177 1300.26 L118.867 1301.92 L118.867 1297.67 L127.13 1296 L131.806 1296 L131.806 1326.62 L139.445 1326.62 L139.445 1330.56 L119.538 1330.56 L119.538 1326.62 Z" fill="#000000" fill-rule="nonzero" fill-opacity="1"></path><path clip-path="url(#clip320)" d="M123.126 947.697 L139.445 947.697 L139.445 951.632 L117.501 951.632 L117.501 947.697 Q120.163 944.942 124.746 940.313 Q129.353 935.66 130.533 934.317 Q132.779 931.794 133.658 930.058 Q134.561 928.299 134.561 926.609 Q134.561 923.854 132.617 922.118 Q130.695 920.382 127.593 920.382 Q125.394 920.382 122.941 921.146 Q120.51 921.91 117.732 923.461 L117.732 918.739 Q120.556 917.604 123.01 917.026 Q125.464 916.447 127.501 916.447 Q132.871 916.447 136.066 919.132 Q139.26 921.817 139.26 926.308 Q139.26 928.438 138.45 930.359 Q137.663 932.257 135.556 934.85 Q134.978 935.521 131.876 938.739 Q128.774 941.933 123.126 947.697 Z" fill="#000000" fill-rule="nonzero" fill-opacity="1"></path><path clip-path="url(#clip320)" d="M132.316 554.071 Q135.672 554.789 137.547 557.057 Q139.445 559.326 139.445 562.659 Q139.445 567.775 135.927 570.576 Q132.408 573.377 125.927 573.377 Q123.751 573.377 121.436 572.937 Q119.144 572.52 116.691 571.664 L116.691 567.15 Q118.635 568.284 120.95 568.863 Q123.265 569.441 125.788 569.441 Q130.186 569.441 132.478 567.705 Q134.792 565.969 134.792 562.659 Q134.792 559.604 132.64 557.891 Q130.51 556.154 126.691 556.154 L122.663 556.154 L122.663 552.312 L126.876 552.312 Q130.325 552.312 132.154 550.946 Q133.982 549.557 133.982 546.965 Q133.982 544.303 132.084 542.891 Q130.209 541.455 126.691 541.455 Q124.769 541.455 122.57 541.872 Q120.371 542.289 117.732 543.168 L117.732 539.002 Q120.394 538.261 122.709 537.891 Q125.047 537.52 127.107 537.52 Q132.431 537.52 135.533 539.951 Q138.635 542.358 138.635 546.479 Q138.635 549.349 136.992 551.34 Q135.348 553.307 132.316 554.071 Z" fill="#000000" fill-rule="nonzero" fill-opacity="1"></path><path clip-path="url(#clip320)" d="M129.862 163.293 L118.056 181.742 L129.862 181.742 L129.862 163.293 M128.635 159.219 L134.515 159.219 L134.515 181.742 L139.445 181.742 L139.445 185.63 L134.515 185.63 L134.515 193.779 L129.862 193.779 L129.862 185.63 L114.26 185.63 L114.26 181.117 L128.635 159.219 Z" fill="#000000" fill-rule="nonzero" fill-opacity="1"></path><path clip-path="url(#clip320)" d="M41.7242 954.809 Q42.4244 952.741 44.7161 950.799 Q47.0077 948.826 51.0181 946.852 L64.0042 940.327 L64.0042 947.234 L51.8138 953.313 Q47.0395 955.669 45.48 957.897 Q43.9204 960.093 43.9204 963.912 L43.9204 970.915 L64.0042 970.915 L64.0042 977.344 L16.4842 977.344 L16.4842 962.83 Q16.4842 954.682 19.8898 950.672 Q23.2955 946.661 30.1704 946.661 Q34.6582 946.661 37.6183 948.762 Q40.5784 950.831 41.7242 954.809 M21.7677 970.915 L38.6368 970.915 L38.6368 962.83 Q38.6368 958.183 36.5043 955.828 Q34.34 953.441 30.1704 953.441 Q26.0009 953.441 23.9002 955.828 Q21.7677 958.183 21.7677 962.83 L21.7677 970.915 Z" fill="#000000" fill-rule="nonzero" fill-opacity="1"></path><path clip-path="url(#clip320)" d="M44.7161 904.743 L47.5806 904.743 L47.5806 931.67 Q53.6281 931.288 56.8109 928.042 Q59.9619 924.763 59.9619 918.939 Q59.9619 915.565 59.1344 912.414 Q58.3069 909.231 56.6518 906.112 L62.1899 906.112 Q63.5267 909.263 64.227 912.573 Q64.9272 915.883 64.9272 919.289 Q64.9272 927.819 59.9619 932.816 Q54.9967 937.781 46.5303 937.781 Q37.7774 937.781 32.6531 933.07 Q27.4968 928.328 27.4968 920.307 Q27.4968 913.114 32.1438 908.944 Q36.7589 904.743 44.7161 904.743 M42.9973 910.6 Q38.1912 910.663 35.3266 913.305 Q32.4621 915.915 32.4621 920.244 Q32.4621 925.145 35.2312 928.105 Q38.0002 931.033 43.0292 931.479 L42.9973 910.6 Z" fill="#000000" fill-rule="nonzero" fill-opacity="1"></path><path clip-path="url(#clip320)" d="M14.479 895.131 L14.479 889.274 L64.0042 889.274 L64.0042 895.131 L14.479 895.131 Z" fill="#000000" fill-rule="nonzero" fill-opacity="1"></path><path clip-path="url(#clip320)" d="M46.0847 860.82 Q46.0847 867.917 47.7079 870.655 Q49.3312 873.392 53.2461 873.392 Q56.3653 873.392 58.2114 871.355 Q60.0256 869.286 60.0256 865.753 Q60.0256 860.883 56.5881 857.955 Q53.1188 854.995 47.3897 854.995 L46.0847 854.995 L46.0847 860.82 M43.6657 849.139 L64.0042 849.139 L64.0042 854.995 L58.5933 854.995 Q61.8398 857 63.3994 859.992 Q64.9272 862.984 64.9272 867.313 Q64.9272 872.787 61.8716 876.034 Q58.7843 879.248 53.6281 879.248 Q47.6125 879.248 44.5569 875.238 Q41.5014 871.196 41.5014 863.207 L41.5014 854.995 L40.9285 854.995 Q36.8862 854.995 34.6901 857.669 Q32.4621 860.31 32.4621 865.117 Q32.4621 868.172 33.1941 871.069 Q33.9262 873.965 35.3903 876.639 L29.9795 876.639 Q28.7381 873.424 28.1334 870.4 Q27.4968 867.376 27.4968 864.512 Q27.4968 856.778 31.5072 852.958 Q35.5176 849.139 43.6657 849.139 Z" fill="#000000" fill-rule="nonzero" fill-opacity="1"></path><path clip-path="url(#clip320)" d="M18.2347 831.283 L28.3562 831.283 L28.3562 819.22 L32.9077 819.22 L32.9077 831.283 L52.2594 831.283 Q56.6199 831.283 57.8613 830.105 Q59.1026 828.896 59.1026 825.235 L59.1026 819.22 L64.0042 819.22 L64.0042 825.235 Q64.0042 832.015 61.4897 834.593 Q58.9434 837.171 52.2594 837.171 L32.9077 837.171 L32.9077 841.468 L28.3562 841.468 L28.3562 837.171 L18.2347 837.171 L18.2347 831.283 Z" fill="#000000" fill-rule="nonzero" fill-opacity="1"></path><path clip-path="url(#clip320)" d="M28.3562 811.517 L28.3562 805.661 L64.0042 805.661 L64.0042 811.517 L28.3562 811.517 M14.479 811.517 L14.479 805.661 L21.895 805.661 L21.895 811.517 L14.479 811.517 Z" fill="#000000" fill-rule="nonzero" fill-opacity="1"></path><path clip-path="url(#clip320)" d="M28.3562 797.608 L28.3562 791.402 L58.275 780.262 L28.3562 769.122 L28.3562 762.915 L64.0042 776.283 L64.0042 784.24 L28.3562 797.608 Z" fill="#000000" fill-rule="nonzero" fill-opacity="1"></path><path clip-path="url(#clip320)" d="M44.7161 724.339 L47.5806 724.339 L47.5806 751.266 Q53.6281 750.884 56.8109 747.637 Q59.9619 744.359 59.9619 738.535 Q59.9619 735.161 59.1344 732.01 Q58.3069 728.827 56.6518 725.708 L62.1899 725.708 Q63.5267 728.859 64.227 732.169 Q64.9272 735.479 64.9272 738.885 Q64.9272 747.415 59.9619 752.412 Q54.9967 757.377 46.5303 757.377 Q37.7774 757.377 32.6531 752.666 Q27.4968 747.924 27.4968 739.903 Q27.4968 732.71 32.1438 728.54 Q36.7589 724.339 44.7161 724.339 M42.9973 730.195 Q38.1912 730.259 35.3266 732.901 Q32.4621 735.511 32.4621 739.839 Q32.4621 744.741 35.2312 747.701 Q38.0002 750.629 43.0292 751.075 L42.9973 730.195 Z" fill="#000000" fill-rule="nonzero" fill-opacity="1"></path><path clip-path="url(#clip320)" d="M18.2347 688.214 L28.3562 688.214 L28.3562 676.151 L32.9077 676.151 L32.9077 688.214 L52.2594 688.214 Q56.6199 688.214 57.8613 687.036 Q59.1026 685.826 59.1026 682.166 L59.1026 676.151 L64.0042 676.151 L64.0042 682.166 Q64.0042 688.946 61.4897 691.524 Q58.9434 694.102 52.2594 694.102 L32.9077 694.102 L32.9077 698.399 L28.3562 698.399 L28.3562 694.102 L18.2347 694.102 L18.2347 688.214 Z" fill="#000000" fill-rule="nonzero" fill-opacity="1"></path><path clip-path="url(#clip320)" d="M28.3562 668.448 L28.3562 662.592 L64.0042 662.592 L64.0042 668.448 L28.3562 668.448 M14.479 668.448 L14.479 662.592 L21.895 662.592 L21.895 668.448 L14.479 668.448 Z" fill="#000000" fill-rule="nonzero" fill-opacity="1"></path><path clip-path="url(#clip320)" d="M35.1993 622.583 Q31.2526 620.387 29.3747 617.331 Q27.4968 614.276 27.4968 610.138 Q27.4968 604.568 31.4117 601.544 Q35.2948 598.521 42.4881 598.521 L64.0042 598.521 L64.0042 604.409 L42.679 604.409 Q37.5546 604.409 35.072 606.223 Q32.5894 608.038 32.5894 611.761 Q32.5894 616.313 35.6131 618.955 Q38.6368 621.596 43.8567 621.596 L64.0042 621.596 L64.0042 627.485 L42.679 627.485 Q37.5228 627.485 35.072 629.299 Q32.5894 631.113 32.5894 634.901 Q32.5894 639.389 35.6449 642.03 Q38.6686 644.672 43.8567 644.672 L64.0042 644.672 L64.0042 650.56 L28.3562 650.56 L28.3562 644.672 L33.8944 644.672 Q30.616 642.667 29.0564 639.866 Q27.4968 637.065 27.4968 633.214 Q27.4968 629.331 29.4702 626.625 Q31.4436 623.888 35.1993 622.583 Z" fill="#000000" fill-rule="nonzero" fill-opacity="1"></path><path clip-path="url(#clip320)" d="M44.7161 556.348 L47.5806 556.348 L47.5806 583.275 Q53.6281 582.893 56.8109 579.646 Q59.9619 576.368 59.9619 570.544 Q59.9619 567.17 59.1344 564.019 Q58.3069 560.836 56.6518 557.717 L62.1899 557.717 Q63.5267 560.868 64.227 564.178 Q64.9272 567.488 64.9272 570.894 Q64.9272 579.424 59.9619 584.421 Q54.9967 589.386 46.5303 589.386 Q37.7774 589.386 32.6531 584.675 Q27.4968 579.933 27.4968 571.912 Q27.4968 564.719 32.1438 560.549 Q36.7589 556.348 44.7161 556.348 M42.9973 562.204 Q38.1912 562.268 35.3266 564.91 Q32.4621 567.52 32.4621 571.848 Q32.4621 576.75 35.2312 579.71 Q38.0002 582.638 43.0292 583.084 L42.9973 562.204 Z" fill="#000000" fill-rule="nonzero" fill-opacity="1"></path><path clip-path="url(#clip322)" d="M465.297 1241.83 L351.182 1241.83 L579.412 1241.83 L465.297 1241.83 L465.297 921.772 L465.297 1241.83  Z" fill="#ff0000" fill-rule="evenodd" fill-opacity="1"></path>
<polyline clip-path="url(#clip322)" style="stroke:#000000; stroke-linecap:round; stroke-linejoin:round; stroke-width:4; stroke-opacity:1; fill:none" points="465.297,1241.83 351.182,1241.83 579.412,1241.83 465.297,1241.83 465.297,921.772 465.297,1241.83 "></polyline>
<path clip-path="url(#clip322)" d="M693.526 921.772 L693.526 692.49 L237.067 692.49 L237.067 921.772 L693.526 921.772 L693.526 692.49 L693.526 921.772  Z" fill="#ff0000" fill-rule="evenodd" fill-opacity="1"></path>
<polyline clip-path="url(#clip322)" style="stroke:#000000; stroke-linecap:round; stroke-linejoin:round; stroke-width:4; stroke-opacity:1; fill:none" points="693.526,921.772 693.526,692.49 237.067,692.49 237.067,921.772 693.526,921.772 693.526,692.49 693.526,921.772 "></polyline>
<path clip-path="url(#clip322)" d="M693.526 367.674 L237.067 367.674 L237.067 692.49 L693.526 692.49 L693.526 367.674 L465.297 367.674 L693.526 367.674  Z" fill="#ff0000" fill-rule="evenodd" fill-opacity="1"></path>
<polyline clip-path="url(#clip322)" style="stroke:#000000; stroke-linecap:round; stroke-linejoin:round; stroke-width:4; stroke-opacity:1; fill:none" points="693.526,367.674 237.067,367.674 237.067,692.49 693.526,692.49 693.526,367.674 465.297,367.674 693.526,367.674 "></polyline>
<path clip-path="url(#clip322)" d="M465.297 87.9763 L351.182 87.9763 L579.412 87.9763 L465.297 87.9763 L465.297 367.674 L465.297 87.9763  Z" fill="#ff0000" fill-rule="evenodd" fill-opacity="1"></path>
<polyline clip-path="url(#clip322)" style="stroke:#000000; stroke-linecap:round; stroke-linejoin:round; stroke-width:4; stroke-opacity:1; fill:none" points="465.297,87.9763 351.182,87.9763 579.412,87.9763 465.297,87.9763 465.297,367.674 465.297,87.9763 "></polyline>
<polyline clip-path="url(#clip322)" style="stroke:#ff0000; stroke-linecap:round; stroke-linejoin:round; stroke-width:0; stroke-opacity:1; fill:none" points="465.297,1241.83 351.182,1241.83 579.412,1241.83 465.297,1241.83 465.297,921.772 "></polyline>
<polyline clip-path="url(#clip322)" style="stroke:#ff0000; stroke-linecap:round; stroke-linejoin:round; stroke-width:0; stroke-opacity:1; fill:none" points="693.526,921.772 693.526,692.49 237.067,692.49 237.067,921.772 693.526,921.772 693.526,692.49 "></polyline>
<polyline clip-path="url(#clip322)" style="stroke:#ff0000; stroke-linecap:round; stroke-linejoin:round; stroke-width:0; stroke-opacity:1; fill:none" points="693.526,367.674 237.067,367.674 237.067,692.49 693.526,692.49 693.526,367.674 465.297,367.674 "></polyline>
<polyline clip-path="url(#clip322)" style="stroke:#ff0000; stroke-linecap:round; stroke-linejoin:round; stroke-width:0; stroke-opacity:1; fill:none" points="465.297,87.9763 351.182,87.9763 579.412,87.9763 465.297,87.9763 465.297,367.674 "></polyline>
<path clip-path="url(#clip322)" d="M1264.1 1026.16 L1149.99 1026.16 L1378.22 1026.16 L1264.1 1026.16 L1264.1 984.444 L1264.1 1026.16  Z" fill="#008000" fill-rule="evenodd" fill-opacity="1"></path>
<polyline clip-path="url(#clip322)" style="stroke:#000000; stroke-linecap:round; stroke-linejoin:round; stroke-width:4; stroke-opacity:1; fill:none" points="1264.1,1026.16 1149.99,1026.16 1378.22,1026.16 1264.1,1026.16 1264.1,984.444 1264.1,1026.16 "></polyline>
<path clip-path="url(#clip322)" d="M1492.33 984.444 L1492.33 964.906 L1035.87 964.906 L1035.87 984.444 L1492.33 984.444 L1492.33 964.906 L1492.33 984.444  Z" fill="#008000" fill-rule="evenodd" fill-opacity="1"></path>
<polyline clip-path="url(#clip322)" style="stroke:#000000; stroke-linecap:round; stroke-linejoin:round; stroke-width:4; stroke-opacity:1; fill:none" points="1492.33,984.444 1492.33,964.906 1035.87,964.906 1035.87,984.444 1492.33,984.444 1492.33,964.906 1492.33,984.444 "></polyline>
<path clip-path="url(#clip322)" d="M1492.33 882.815 L1035.87 882.815 L1035.87 964.906 L1492.33 964.906 L1492.33 882.815 L1264.1 882.815 L1492.33 882.815  Z" fill="#008000" fill-rule="evenodd" fill-opacity="1"></path>
<polyline clip-path="url(#clip322)" style="stroke:#000000; stroke-linecap:round; stroke-linejoin:round; stroke-width:4; stroke-opacity:1; fill:none" points="1492.33,882.815 1035.87,882.815 1035.87,964.906 1492.33,964.906 1492.33,882.815 1264.1,882.815 1492.33,882.815 "></polyline>
<path clip-path="url(#clip322)" d="M1264.1 882.815 L1149.99 882.815 L1378.22 882.815 L1264.1 882.815 L1264.1 882.815 L1264.1 882.815  Z" fill="#008000" fill-rule="evenodd" fill-opacity="1"></path>
<polyline clip-path="url(#clip322)" style="stroke:#000000; stroke-linecap:round; stroke-linejoin:round; stroke-width:4; stroke-opacity:1; fill:none" points="1264.1,882.815 1149.99,882.815 1378.22,882.815 1264.1,882.815 "></polyline>
<circle clip-path="url(#clip322)" cx="1264.1" cy="658.078" r="14.4" fill="#008000" fill-rule="evenodd" fill-opacity="1" stroke="#000000" stroke-opacity="1" stroke-width="3.2"></circle>
<circle clip-path="url(#clip322)" cx="1264.1" cy="561.738" r="14.4" fill="#008000" fill-rule="evenodd" fill-opacity="1" stroke="#000000" stroke-opacity="1" stroke-width="3.2"></circle>
<polyline clip-path="url(#clip322)" style="stroke:#008000; stroke-linecap:round; stroke-linejoin:round; stroke-width:0; stroke-opacity:1; fill:none" points="1264.1,1026.16 1149.99,1026.16 1378.22,1026.16 1264.1,1026.16 1264.1,984.444 "></polyline>
<polyline clip-path="url(#clip322)" style="stroke:#008000; stroke-linecap:round; stroke-linejoin:round; stroke-width:0; stroke-opacity:1; fill:none" points="1492.33,984.444 1492.33,964.906 1035.87,964.906 1035.87,984.444 1492.33,984.444 1492.33,964.906 "></polyline>
<polyline clip-path="url(#clip322)" style="stroke:#008000; stroke-linecap:round; stroke-linejoin:round; stroke-width:0; stroke-opacity:1; fill:none" points="1492.33,882.815 1035.87,882.815 1035.87,964.906 1492.33,964.906 1492.33,882.815 1264.1,882.815 "></polyline>
<polyline clip-path="url(#clip322)" style="stroke:#008000; stroke-linecap:round; stroke-linejoin:round; stroke-width:0; stroke-opacity:1; fill:none" points="1264.1,882.815 1149.99,882.815 1378.22,882.815 1264.1,882.815 "></polyline>
<path clip-path="url(#clip322)" d="M2062.9 1378.7 L1948.79 1378.7 L2177.02 1378.7 L2062.9 1378.7 L2062.9 1339.72 L2062.9 1378.7  Z" fill="#0000ff" fill-rule="evenodd" fill-opacity="1"></path>
<polyline clip-path="url(#clip322)" style="stroke:#000000; stroke-linecap:round; stroke-linejoin:round; stroke-width:4; stroke-opacity:1; fill:none" points="2062.9,1378.7 1948.79,1378.7 2177.02,1378.7 2062.9,1378.7 2062.9,1339.72 2062.9,1378.7 "></polyline>
<path clip-path="url(#clip322)" d="M2291.13 1339.72 L2291.13 1313.28 L1834.67 1313.28 L1834.67 1339.72 L2291.13 1339.72 L2291.13 1313.28 L2291.13 1339.72  Z" fill="#0000ff" fill-rule="evenodd" fill-opacity="1"></path>
<polyline clip-path="url(#clip322)" style="stroke:#000000; stroke-linecap:round; stroke-linejoin:round; stroke-width:4; stroke-opacity:1; fill:none" points="2291.13,1339.72 2291.13,1313.28 1834.67,1313.28 1834.67,1339.72 2291.13,1339.72 2291.13,1313.28 2291.13,1339.72 "></polyline>
<path clip-path="url(#clip322)" d="M2291.13 1287.01 L1834.67 1287.01 L1834.67 1313.28 L2291.13 1313.28 L2291.13 1287.01 L2062.9 1287.01 L2291.13 1287.01  Z" fill="#0000ff" fill-rule="evenodd" fill-opacity="1"></path>
<polyline clip-path="url(#clip322)" style="stroke:#000000; stroke-linecap:round; stroke-linejoin:round; stroke-width:4; stroke-opacity:1; fill:none" points="2291.13,1287.01 1834.67,1287.01 1834.67,1313.28 2291.13,1313.28 2291.13,1287.01 2062.9,1287.01 2291.13,1287.01 "></polyline>
<path clip-path="url(#clip322)" d="M2062.9 1285.77 L1948.79 1285.77 L2177.02 1285.77 L2062.9 1285.77 L2062.9 1287.01 L2062.9 1285.77  Z" fill="#0000ff" fill-rule="evenodd" fill-opacity="1"></path>
<polyline clip-path="url(#clip322)" style="stroke:#000000; stroke-linecap:round; stroke-linejoin:round; stroke-width:4; stroke-opacity:1; fill:none" points="2062.9,1285.77 1948.79,1285.77 2177.02,1285.77 2062.9,1285.77 2062.9,1287.01 2062.9,1285.77 "></polyline>
<circle clip-path="url(#clip322)" cx="2062.9" cy="1445.72" r="14.4" fill="#0000ff" fill-rule="evenodd" fill-opacity="1" stroke="#000000" stroke-opacity="1" stroke-width="3.2"></circle>
<circle clip-path="url(#clip322)" cx="2062.9" cy="1192.56" r="14.4" fill="#0000ff" fill-rule="evenodd" fill-opacity="1" stroke="#000000" stroke-opacity="1" stroke-width="3.2"></circle>
<polyline clip-path="url(#clip322)" style="stroke:#0000ff; stroke-linecap:round; stroke-linejoin:round; stroke-width:0; stroke-opacity:1; fill:none" points="2062.9,1378.7 1948.79,1378.7 2177.02,1378.7 2062.9,1378.7 2062.9,1339.72 "></polyline>
<polyline clip-path="url(#clip322)" style="stroke:#0000ff; stroke-linecap:round; stroke-linejoin:round; stroke-width:0; stroke-opacity:1; fill:none" points="2291.13,1339.72 2291.13,1313.28 1834.67,1313.28 1834.67,1339.72 2291.13,1339.72 2291.13,1313.28 "></polyline>
<polyline clip-path="url(#clip322)" style="stroke:#0000ff; stroke-linecap:round; stroke-linejoin:round; stroke-width:0; stroke-opacity:1; fill:none" points="2291.13,1287.01 1834.67,1287.01 1834.67,1313.28 2291.13,1313.28 2291.13,1287.01 2062.9,1287.01 "></polyline>
<polyline clip-path="url(#clip322)" style="stroke:#0000ff; stroke-linecap:round; stroke-linejoin:round; stroke-width:0; stroke-opacity:1; fill:none" points="2062.9,1285.77 1948.79,1285.77 2177.02,1285.77 2062.9,1285.77 2062.9,1287.01 "></polyline>
</svg>